<?xml version="1.0" ?><!DOCTYPE svg  PUBLIC '-//W3C//DTD SVG 1.1//EN'  'http://www.w3.org/Graphics/SVG/1.1/DTD/svg11.dtd'><svg enable-background="new 0 0 512 512" height="512px" id="Pet_x5F_patient" version="1.1" viewBox="0 0 512 512" width="512px" xml:space="preserve" xmlns="http://www.w3.org/2000/svg" xmlns:xlink="http://www.w3.org/1999/xlink"><path d="M318.996,372.272v-65.789l102.938-71.693l-54.928-29.107l16.809-13.387c14.178-11.293,23.494-27.381,26.232-45.3  s-1.35-36.055-11.512-51.066l-3.111-4.598l-93.512,53.235l-29.439-43.493l-4.969,3.363c-10.371,7.02-17.388,17.657-19.757,29.954  c-0.491,2.551-0.758,5.109-0.829,7.655l-47.246-25.036l-1.53,126.067c-4.174,1.566-8.209,3.404-12.099,5.506l-3.895,2.371  l-8.105,5.307c-6.081,4.555-11.705,9.862-16.812,15.914c-5.629,6.672-10.481,14.129-14.513,22.208v-56.953l-7.2,1.47  c-26.337,5.378-45.452,32.46-45.452,64.395c0,29.309,16.257,54.171,38.578,62.433v54.94h190.352v-0.206h23.184v-21.097  C342.18,385.686,332.111,374.314,318.996,372.272z M130.718,331.968c-1.122,6.729-1.795,13.658-1.999,20.73  c-15.617-7.959-26.653-27.099-26.653-49.403c0-23.113,11.685-43.034,28.652-50.367V331.968z M391.488,107.38  c1.322,2.403,2.463,4.887,3.436,7.425l-9.688,6.844l-5.232-7.73L391.488,107.38z M259.529,136.662  c1.379-7.154,4.871-13.554,10.018-18.501l28.652,42.328l71.346-40.616l12.617,18.641l16.031-11.326  c0.895,5.906,0.912,11.965-0.01,17.996c-2.279,14.923-10.037,28.321-21.846,37.726l-20.898,16.645l-96.146-50.948  C258.689,144.693,258.76,140.664,259.529,136.662z M210.186,239.398l1.245-102.575l37.405,19.822l18.529,9.817l77.834,41.246  l11.566,6.129l42.17,22.347l-79.939,55.676l-6.961,4.849l-5.039-2.67l-84.42-44.735l-12.43-6.587L210.186,239.398z M330.18,408.462  h-19.5v-6.032c0-14.756-10.537-27.097-24.482-29.891v-53.204h-12v64.611h6c10.191,0,18.482,8.292,18.482,18.483v6.238h-58.211  v-6.094c0-22.446-18.261-40.708-40.707-40.708h-19.895v12h19.895c15.829,0,28.707,12.878,28.707,28.708v6.094h-87.824v-40.232  v-11.098c0-0.318,0.017-0.631,0.019-0.949c0.037-5.786,0.412-11.466,1.108-17.011c0.513-4.081,1.207-8.083,2.065-12  c3.994-18.228,11.658-34.536,22.565-47.463c10.497-12.438,23.491-21.337,38.402-26.447l102.192,54.152v76.326h7.766  c8.502,0,15.418,6.917,15.418,15.419V408.462z"/></svg>