<?xml version="1.0" ?><!DOCTYPE svg  PUBLIC '-//W3C//DTD SVG 1.1//EN'  'http://www.w3.org/Graphics/SVG/1.1/DTD/svg11.dtd'><svg enable-background="new 0 0 512 512" height="512px" id="Pet_x5F_soap" version="1.1" viewBox="0 0 512 512" width="512px" xml:space="preserve" xmlns="http://www.w3.org/2000/svg" xmlns:xlink="http://www.w3.org/1999/xlink"><g><rect height="18.82" width="12" x="90.533" y="261.502"/><rect height="18.507" width="12" x="90.533" y="210.944"/><rect height="12" width="18.507" x="61.844" y="239.633"/><rect height="12" width="19.136" x="112.087" y="239.633"/><path d="M340.688,77.227H224.293v1.295h-0.032v67.794h-0.715c-16.11,0-29.217,13.106-29.217,29.217v2.438h-35.308v256.803h192.146   V177.971H315.86v-2.438c0-16.11-13.106-29.217-29.217-29.217h-0.715v-32.245h42.077c5.192,0,9.417,4.225,9.417,9.417v10.751h40.04   v-20.238C377.463,93.724,360.965,77.227,340.688,77.227z M236.261,114.071V90.522h0.032h37.636v11.549v12v32.245h-37.668V114.071z    M339.168,422.773H171.021V232.555c5.674,0.929,9.262,3.151,13.259,5.635c5.962,3.705,12.72,7.904,25.697,7.904   c12.977,0,19.734-4.199,25.696-7.904c5.265-3.271,9.811-6.096,19.363-6.096c9.554,0,14.101,2.825,19.365,6.096   c5.963,3.705,12.721,7.904,25.699,7.904s19.737-4.199,25.699-7.904c4.021-2.498,7.632-4.732,13.367-5.65V422.773z M315.86,189.971   h23.308v30.462c-9.203,1.06-14.734,4.479-19.699,7.564c-5.266,3.271-9.813,6.096-19.367,6.096c-9.554,0-14.101-2.825-19.365-6.097   c-5.963-3.705-12.721-7.903-25.699-7.903c-12.978,0-19.735,4.199-25.697,7.904c-5.264,3.271-9.81,6.096-19.362,6.096   s-14.1-2.825-19.364-6.096c-4.946-3.073-10.452-6.479-19.592-7.554v-30.473h23.308h12h97.531H315.86z M286.644,158.316   c9.493,0,17.217,7.724,17.217,17.217v2.438h-97.531v-2.438c0-9.493,7.724-17.217,17.217-17.217h0.715h61.668H286.644z    M365.463,122.24h-16.076c-0.648-11.231-9.99-20.169-21.381-20.169h-42.077V89.227h54.759c13.661,0,24.775,11.114,24.775,24.775   V122.24z"/><path d="M300.051,337.539c-6.111-4.287-11.639-10.205-16.429-17.592c-6.257-9.646-16.812-15.406-28.235-15.406   s-21.979,5.76-28.236,15.407c-4.79,7.386-10.317,13.304-16.429,17.591c-9.01,6.318-14.388,16.617-14.388,27.549   c0,18.552,15.094,33.645,33.646,33.645h50.813c18.553,0,33.646-15.093,33.646-33.645   C314.439,354.156,309.061,343.857,300.051,337.539z M280.793,386.732h-50.813c-11.936,0-21.646-9.709-21.646-21.645   c0-7.023,3.469-13.65,9.278-17.725c7.378-5.176,13.975-12.202,19.605-20.885c4.036-6.223,10.828-9.938,18.169-9.938   s14.133,3.715,18.168,9.937c5.631,8.684,12.228,15.71,19.605,20.886c5.811,4.074,9.279,10.701,9.279,17.725   C302.439,377.023,292.729,386.732,280.793,386.732z"/><path d="M217.744,315.004v-11.99c0-9.061-7.371-16.432-16.432-16.432c-9.06,0-16.431,7.371-16.431,16.432v11.99   c0,9.061,7.371,16.432,16.431,16.432C210.373,331.436,217.744,324.064,217.744,315.004z M196.882,315.004v-11.99   c0-2.443,1.987-4.432,4.431-4.432s4.432,1.988,4.432,4.432v11.99c0,2.443-1.988,4.432-4.432,4.432S196.882,317.447,196.882,315.004   z"/><path d="M308.877,286.582c-9.061,0-16.432,7.371-16.432,16.432v11.99c0,9.061,7.371,16.432,16.432,16.432   c9.06,0,16.431-7.371,16.431-16.432v-11.99C325.308,293.953,317.937,286.582,308.877,286.582z M313.308,315.004   c0,2.443-1.987,4.432-4.431,4.432s-4.432-1.988-4.432-4.432v-11.99c0-2.443,1.988-4.432,4.432-4.432s4.431,1.988,4.431,4.432   V315.004z"/><path d="M235.236,302.476c9.061,0,16.432-7.371,16.432-16.431v-11.991c0-9.06-7.371-16.431-16.432-16.431   c-9.06,0-16.431,7.371-16.431,16.431v11.991C218.806,295.104,226.177,302.476,235.236,302.476z M230.806,274.054   c0-2.443,1.987-4.431,4.431-4.431s4.432,1.987,4.432,4.431v11.991c0,2.442-1.988,4.431-4.432,4.431s-4.431-1.988-4.431-4.431   V274.054z"/><path d="M274.953,302.476c9.06,0,16.431-7.371,16.431-16.431v-11.991c0-9.06-7.371-16.431-16.431-16.431   c-9.061,0-16.432,7.371-16.432,16.431v11.991C258.521,295.104,265.893,302.476,274.953,302.476z M270.521,274.054   c0-2.443,1.988-4.431,4.432-4.431s4.431,1.987,4.431,4.431v11.991c0,2.442-1.987,4.431-4.431,4.431s-4.432-1.988-4.432-4.431   V274.054z"/><rect height="18.82" width="12" x="409.467" y="385.787"/><rect height="18.507" width="12" x="409.467" y="335.229"/><rect height="12" width="18.507" x="380.777" y="363.918"/><rect height="12" width="19.136" x="431.021" y="363.918"/></g></svg>