<?xml version="1.0" ?><svg viewBox="0 0 512 512" xmlns="http://www.w3.org/2000/svg"><title/><g id="Beagle"><path d="M439.1406,336.4777,431.5953,248.75a103.9458,103.9458,0,0,0-40.5094-73.65l-67.5515-51.4438c-.0164-.0123-.0356-.0182-.052-.0305a89.1984,89.1984,0,0,0-52.19-19.2968,3.8116,3.8116,0,0,0-1.5195-.0422c-.6672-.0147-1.33-.0555-2-.0555H244.2281c-.6693,0-1.3322.0408-1.9994.0555a3.8116,3.8116,0,0,0-1.5195.0422,89.2015,89.2015,0,0,0-52.1942,19.3c-.0154.0115-.0341.016-.0494.0277L120.9141,175.1a103.9458,103.9458,0,0,0-40.5094,73.65l-7.5453,87.7281a66.099,66.099,0,0,0,17.1125,50.23c25.2613,27.5244,69.7881,28.1564,95.8234,1.4062,1.3906-1.4287,2.6826-2.9244,3.9242-4.4512a38.9981,38.9981,0,0,0,30.56,8.6293L256,387.1042l35.72,5.1875a39.289,39.289,0,0,0,30.5649-8.6238c1.23,1.5322,2.5326,3.0193,3.9226,4.4473,26.0361,26.7478,70.5592,26.1164,95.82-1.4078A66.0986,66.0986,0,0,0,439.1406,336.4777ZM176.6219,379.1871c-21.0149,21.591-56.8565,21.0526-77.2188-1.1344a52.5612,52.5612,0,0,1-13.7906-40.4781l7.5453-87.7282A91.1116,91.1116,0,0,1,128.67,185.2839l32.251-24.5617a89.3387,89.3387,0,0,0-4.5088,51.3524l13.5156,65.3328a272.9211,272.9211,0,0,1,5.6469,55.1672v21.039a39.05,39.05,0,0,0,5.6061,20.1486A52.5253,52.5253,0,0,1,176.6219,379.1871Zm5.8406-104.3735-13.5156-65.3328a76.8727,76.8727,0,0,1,66.3312-91.926V241.4871a47.3537,47.3537,0,0,1-27.2828,42.7859l-22.1814,10.3207Q184.4776,284.6439,182.4625,274.8136Zm141.1625,57.761v21.039a26.2842,26.2842,0,0,1-30.0641,26.0125L256.92,374.3042a6.3423,6.3423,0,0,0-1.8406,0l-36.6406,5.3219a26.2842,26.2842,0,0,1-30.0641-26.0125v-21.039c0-8.1844-.3771-16.38-1.084-24.5495l26.1043-12.1459a60.2,60.2,0,0,0,34.6828-54.3921V117.0308h15.8453V241.4871a60.1984,60.1984,0,0,0,34.6813,54.3921l26.1043,12.1454C324.0021,316.1943,323.625,324.39,323.625,332.5746Zm2.5611-37.9815-22.1814-10.32a47.3533,47.3533,0,0,1-27.2813-42.7859V117.5548a76.8758,76.8758,0,0,1,66.3313,91.926l-13.5172,65.3328Q327.507,284.63,326.1861,294.5931Zm86.4108,83.46c-20.3621,22.1868-56.2024,22.7253-77.2172,1.1344a52.3116,52.3116,0,0,1-4.5736-5.4053,39.05,39.05,0,0,0,5.6189-20.1682v-21.039a272.9211,272.9211,0,0,1,5.6469-55.1672l13.5172-65.3328a89.3417,89.3417,0,0,0-4.5088-51.3512l32.2494,24.56a91.1116,91.1116,0,0,1,35.5125,64.5625l7.5453,87.7282A52.5612,52.5612,0,0,1,412.5969,378.0527Z"/><path d="M271.2156,309.1871H240.7844c-9.1685,0-14.5113,10.9019-8.8469,18.1468L247.1531,346.79l.0016.0015a11.343,11.343,0,0,0,17.6922-.0015l15.214-19.4547C285.7228,320.0948,280.391,309.1871,271.2156,309.1871Z"/><path d="M223.108,244.7951V234.149a15.12,15.12,0,1,0-30.24,0v10.6461a15.12,15.12,0,0,0,30.24,0Z"/><path d="M304.0121,219.029a15.1377,15.1377,0,0,0-15.12,15.12v10.6461a15.12,15.12,0,0,0,30.24,0V234.149A15.1378,15.1378,0,0,0,304.0121,219.029Z"/></g></svg>