<?xml version="1.0" ?><svg id="Bull_terrier" viewBox="0 0 512 512" xmlns="http://www.w3.org/2000/svg"><title/><path d="M214.998,254.6563V245.368a13.1918,13.1918,0,1,0-26.3835,0v9.2883a13.1918,13.1918,0,1,0,26.3835,0Z"/><path d="M310.1939,232.1762a13.2074,13.2074,0,0,0-13.1918,13.1918v9.2883a13.1918,13.1918,0,1,0,26.3836,0V245.368A13.2074,13.2074,0,0,0,310.1939,232.1762Z"/><path d="M272.5953,364.0813H239.4047a11.6677,11.6677,0,0,0-9.1891,18.8563l16.5938,21.2156a11.7787,11.7787,0,0,0,18.38.0031l16.5968-21.2219a11.6659,11.6659,0,0,0-9.1906-18.8531Z"/><path d="M406.0344,98.5594a21.5336,21.5336,0,0,0-31.3156-18.0812c-38.911,19.7883-67.1659,47.5391-84.6778,68.4223a86.4725,86.4725,0,0,0-19.4816-2.2379H241.4422a86.4864,86.4864,0,0,0-19.483,2.2383C200.8453,123.722,175.5,101.8453,146.8685,85.632,137.3,80.2135,127.3967,74.8224,116.7031,81a21.5048,21.5048,0,0,0-10.7375,17.5593c-2.2547,42.3782,7.2328,79.8625,15.5875,103.8469a74.8455,74.8455,0,0,0,33.6891,40.4094v43.2187c0,30.4906,6.5394,61.2895,20.92,88.3082,11.15,20.9478,27.3953,40.4263,48.69,51.57,17.6381,9.23,37.2644,10.71,55.7566,3.0623,21.5519-8.9126,38.5589-26.8734,50.56-46.461,17.6427-28.7957,25.5892-62.8986,25.5892-96.4793V242.8157a74.8455,74.8455,0,0,0,33.6891-40.4094C398.8016,178.4219,408.2891,140.9376,406.0344,98.5594ZM168.0422,286.0344V239.0938c0-.125-.03-.2422-.0369-.3652a6.3658,6.3658,0,0,0-.0688-.6828c-.0338-.2035-.0818-.3992-.1344-.5957-.0531-.1992-.11-.3946-.1824-.5879-.0738-.1973-.1588-.3856-.2508-.5731-.09-.1847-.1855-.364-.2933-.54-.1057-.1715-.22-.3332-.3412-.4934a6.2109,6.2109,0,0,0-.4069-.4929c-.1361-.1477-.2808-.2828-.43-.4172-.1565-.14-.3149-.2758-.4869-.4016a6.28,6.28,0,0,0-.5534-.3539c-.1123-.0656-.2082-.1492-.3257-.2086a62.2415,62.2415,0,0,1-30.8907-35.1875c-7.9781-22.8969-17.0375-58.6531-14.8937-98.9531a8.8146,8.8146,0,0,1,12.7312-7.35c34.5934,17.5906,60.3869,41.8672,77.2641,61.2473a85.7826,85.7826,0,0,0-14.7266,7.7339,6.3973,6.3973,0,0,0-1.8156,8.8657,6.4658,6.4658,0,0,0,8.8656,1.8156,73.0813,73.0813,0,0,1,40.3766-12.0906h5.4094V262.6063a49.2315,49.2315,0,0,1-49.1766,49.175H169.817A188.9361,188.9361,0,0,1,168.0422,286.0344Zm210.3172-87.8406a62.2417,62.2417,0,0,1-30.8906,35.1875c-.1176.0594-.2135.143-.3258.2086a6.28,6.28,0,0,0-.5534.3539c-.172.1258-.33.2613-.4869.4016-.1494.1344-.2941.2695-.43.4172a6.2109,6.2109,0,0,0-.4069.4929c-.1209.16-.2355.3219-.3412.4934-.1078.1762-.2031.3555-.2933.54-.092.1875-.177.3758-.2508.5731-.0721.1933-.1293.3887-.1824.5879-.0526.1965-.1006.3922-.1344.5957a6.3658,6.3658,0,0,0-.0688.6828c-.007.123-.0369.24-.0369.3652v46.9406c0,43.1472-14.7764,91.4626-49.2992,119.6257-11.8789,9.6906-26.8435,16.8241-42.5025,15.5049-17.9634-1.5133-33.78-12.83-45.6-25.7751-17.9079-19.6141-29.07-45.0078-34.5141-70.8086H197.675a62.0472,62.0472,0,0,0,61.9766-61.975V159.4626h10.9078a73.08,73.08,0,0,1,40.375,12.0906,6.466,6.466,0,0,0,8.8656-1.8156,6.3973,6.3973,0,0,0-1.8156-8.8657,85.7976,85.7976,0,0,0-14.7264-7.7343c16.8774-19.38,42.6705-43.6567,77.2639-61.25a8.7332,8.7332,0,0,1,12.7312,7.3531C395.3969,139.5407,386.3375,175.2969,378.3594,198.1938Z"/></svg>