<?xml version="1.0" ?><svg viewBox="0 0 512 512" xmlns="http://www.w3.org/2000/svg"><title/><g id="Shih_tzu"><path d="M456.3194,214.8408l-53.9234-49.98a25.1346,25.1346,0,0,0-18.8725-6.68,89.21,89.21,0,0,0-15.1682-17.2046l14.7516-11.4922a6.3977,6.3977,0,0,0-.1594-10.2172c-25.964-18.961-57.3328-19.811-72.9687-18.7766l3.3656-12.2234a6.4013,6.4013,0,0,0-1.1094-5.6156,6.2982,6.2982,0,0,0-5.1578-2.4829c-26.75.4063-43.3656,11.6532-51.07,18.5532-7.7031-6.8985-24.3187-18.1469-51.0719-18.5532a6.4011,6.4011,0,0,0-6.2672,8.0985l3.3657,12.2234c-15.65-1.0359-47.0063-.1828-72.9688,18.7766a6.4,6.4,0,0,0-.1594,10.2172l14.7532,11.4922a89.1971,89.1971,0,0,0-15.1694,17.2062,25.134,25.134,0,0,0-18.8728,6.6781l-53.98,50.0313c-24.4594,23.2219-6.2313,66.9-5.4438,68.7469a6.4005,6.4005,0,0,0,10.02,2.3765L66.521,280.68c.9906,9.8219,4.12,23.0375,13.0234,34.3781a6.3977,6.3977,0,0,0,9.0484,1.0328l5.68-4.5719c6.1344,10.2782,20.0664,29.83,45.2141,47.4993a118.47,118.47,0,0,0,11.6875,44.8664,6.397,6.397,0,0,0,9.0781,2.7453l13.6985-8.2266a78.982,78.982,0,0,0,14.0718,30.9531,6.475,6.475,0,0,0,8.97,1.1829l39.6711-30.41a123.01,123.01,0,0,0,38.6987.0074l39.6615,30.4028a6.4752,6.4752,0,0,0,8.97-1.1829,78.9525,78.9525,0,0,0,14.07-30.9531l13.7,8.2281a6.3989,6.3989,0,0,0,9.0781-2.7468,118.47,118.47,0,0,0,11.6877-44.87c25.1444-17.6683,39.0752-37.2179,45.2092-47.4957l5.68,4.5719a6.3977,6.3977,0,0,0,9.0484-1.0328c8.9032-11.3391,12.0344-24.5562,13.0235-34.3766l6.3078,5.3344a6.4,6.4,0,0,0,10.02-2.3765C462.6069,281.7924,480.835,238.1143,456.3194,214.8408ZM136.5479,169.2943a6.3213,6.3213,0,0,0,1.0324-1.6738c9.08-14.33,19.0411-20.5687,19.8532-21.0594a6.4,6.4,0,0,0,.6718-10.5562L143.88,124.9236c29.775-16.8422,65.3125-10.8109,65.6907-10.7453a6.3993,6.3993,0,0,0,7.3047-7.9969L213.4007,93.56c25.3687,3.1437,37.0187,17.57,37.5312,18.22a6.4078,6.4078,0,0,0,5.0484,2.4844,6.6729,6.6729,0,0,0,5.0782-2.4547c.5328-.6782,12.1843-15.1063,37.5531-18.25l-3.475,12.6218a6.3995,6.3995,0,0,0,7.3062,7.9969c.3844-.07,35.8313-6.1812,65.6922,10.7438l-14.2265,11.0828a6.4,6.4,0,0,0,.6718,10.5562c.3875.2282,36.7344,22.4922,34.8563,82.8688-20.0219-10.5422-68.3828-32.1641-100.0641-14.4141-17.298,9.69-26.681,29.1676-27.9707,57.9156h-10.79c-1.29-28.748-10.6727-48.2257-27.9707-57.9156-31.6922-17.75-80.0531,3.875-100.07,14.4172C121.6878,201.9455,128.629,182.4533,136.5479,169.2943Zm3.4485,174.136c-27.2245-21.4121-37.803-44.095-37.9129-44.3348A6.3986,6.3986,0,0,0,92.23,296.73l-6.23,5.0156c-8.83-15.6156-6.9016-33.7844-6.8813-33.975a6.3992,6.3992,0,0,0-10.4875-5.6391l-9.5281,8.0579c-3.461-12.02-7.3672-33.9454,5.289-45.961l53.9235-49.98a13.1242,13.1242,0,0,1,1.9447-1.4664c-7.4584,16.2438-12.5947,38.4328-9.7947,67.8055a6.4036,6.4036,0,0,0,9.7125,4.8516c.1582-.0969,4.29-2.5907,10.8969-5.9485v38.5078a123.612,123.612,0,0,0,11.4189,52.1289A89.5058,89.5058,0,0,0,139.9964,343.43Zm9.3681-30.7364a111.2269,111.2269,0,0,1-5.4888-34.6953V233.4732c21.2888-9.2293,52.224-18.6613,72.5218-7.2824,13.1895,7.3949,20.3752,23.3383,21.4319,47.3938a10.9038,10.9038,0,0,0-6.2022,5.5265,11.1463,11.1463,0,0,0-.692,1.8742c-22.3113-2.8-52.8783-2.7816-68.9283,14.104A79.9972,79.9972,0,0,0,149.3645,312.6939Zm82.8987,74.68-37.6969,28.8969a68.6646,68.6646,0,0,1-9.3219-28.5641,6.4006,6.4006,0,0,0-9.6891-5.1968l-15.6609,9.4047c-13.3578-33.1-9.2094-66.3313,11.3906-88.0063,13.0953-13.7836,43.0471-12.7219,64.6137-9.3019l11.4426,14.6316a10.9719,10.9719,0,0,0,2.266,2.1141l.0012,40.87A44.5614,44.5614,0,0,1,232.2632,387.3736Zm16.9916,1.2582a57.5991,57.5991,0,0,0,6.7537-10.2738,57.59,57.59,0,0,0,6.7672,10.2895A114.818,114.818,0,0,1,249.2548,388.6318Zm102.8677,3.2825L336.46,382.508a6.4082,6.4082,0,0,0-9.6875,5.1828,68.6558,68.6558,0,0,1-9.3234,28.58l-37.6953-28.8969a44.5611,44.5611,0,0,1-17.3453-35.1515l.0011-40.8727a10.9588,10.9588,0,0,0,2.2614-2.1117l11.4408-14.6313c21.567-3.42,51.5209-4.482,64.62,9.3016C361.3319,325.583,365.48,358.8143,352.1225,391.9143Zm16.0157-113.9157a111.024,111.024,0,0,1-5.5118,34.6422c-4.11-7.7116-9.4989-15.4792-16.364-20.9931a51.6888,51.6888,0,0,0-19.8873-9.347c-14.7048-3.7054-30.3623-3.19-45.2981-1.3154a11.1376,11.1376,0,0,0-.692-1.8742,10.9048,10.9048,0,0,0-6.2006-5.5261c1.0567-24.0559,8.2422-40.0008,21.4319-47.3942,20.3008-11.384,51.2344-1.9512,72.5219,7.28Zm84.7687-7.8109-9.5266-8.0563a6.4042,6.4042,0,0,0-10.4906,5.625c.0235.2032,1.9547,18.3735-6.8765,33.9891l-6.2313-5.0156a6.3985,6.3985,0,0,0-9.8531,2.3656c-.1129.25-10.5311,22.8352-37.908,44.3367a89.5154,89.5154,0,0,0-2.5-13.31,123.6216,123.6216,0,0,0,11.4174-52.1235V239.49c6.6058,3.3578,10.7367,5.8524,10.8953,5.9493a6.4019,6.4019,0,0,0,9.7109-4.8516c2.8008-29.3723-2.3348-51.5613-9.7924-67.8051a13.1591,13.1591,0,0,1,1.944,1.466l53.8672,49.9282C460.26,236.23,456.3632,258.1674,452.9069,270.1877Z"/><path d="M192.6813,273.476a14.4169,14.4169,0,0,0,14.4-14.4V248.9369a14.4,14.4,0,0,0-28.8,0V259.076A14.4169,14.4169,0,0,0,192.6813,273.476Z"/><path d="M304.9313,248.9369V259.076a14.4,14.4,0,0,0,28.8,0V248.9369a14.4,14.4,0,1,0-28.8,0Z"/></g></svg>