<?xml version="1.0" ?><svg viewBox="0 0 512 512" xmlns="http://www.w3.org/2000/svg"><title/><g id="Bulldog"><path d="M389.7609,96.6349H356.02a24.9623,24.9623,0,0,0-18.8463,8.37A145.6944,145.6944,0,0,0,296.1688,99.11H215.8313a145.6838,145.6838,0,0,0-41.0055,5.8946,24.9617,24.9617,0,0,0-18.8461-8.37H122.2375a70.41,70.41,0,0,0-70.33,70.3313v16.975A31.85,31.85,0,0,0,71.88,213.83a32.2912,32.2912,0,0,0,21.2057,1.3152C85.1,255.2347,80.7306,296.9535,81.93,337.8349a69.032,69.032,0,0,0,27.4484,53.136,70.5835,70.5835,0,0,0,57.7494,12.6461c45.175,12.7658,94.0166,14.69,140.3518,7.8909a295.3732,295.3732,0,0,0,37.4018-7.889A69.758,69.758,0,0,0,402.62,390.9724a69.0323,69.0323,0,0,0,27.4485-53.1375c1.1991-40.8819-3.1692-82.5994-11.1551-122.689A32.3015,32.3015,0,0,0,440.12,213.83a31.85,31.85,0,0,0,19.9719-29.8891v-16.975A70.41,70.41,0,0,0,389.7609,96.6349Zm-58.5453,19.9909a24.9175,24.9175,0,0,0,6.8391,23.381l65.7371,65.7371c1.9508,8.3694,9.7695,44.2283,12.5723,91.7311l-3.6438-.3916a137.2728,137.2728,0,0,1-119.9437-112.125l-4.7248-26.8131c.6931.5877,1.4275,1.283,2.281,2.1115a29.4957,29.4957,0,0,0,8.8222,6.4186c3.742,1.5873,9.8055,3.05,13.0735-.2182a6.4624,6.4624,0,0,0-2.0343-10.4224c-1.803-.7621-3.7858-.32-5.6216-.972-2.1164-.7514-3.7505-2.463-5.3242-3.99-3.0175-2.9289-7.0119-6.7695-13.8166-7.7963L279.9047,111.91h16.2641A132.9469,132.9469,0,0,1,331.2156,116.6258ZM266.907,111.91l5.8219,33.04a29.7321,29.7321,0,0,0-8.232,6.1207c-2.4912,2.4167-4.82,4.4607-8.4688,4.4609-3.6655,0-5.9714-2.0331-8.4781-4.4625a29.6759,29.6759,0,0,0-8.2762-6.14l5.8192-33.02Zm-34.8119,0L226.566,143.284c-6.7857,1.0357-10.7771,4.8636-13.7926,7.7853-1.578,1.5294-3.2163,3.2414-5.3373,3.9931-1.8378.6512-3.83.2106-5.6319.9724a6.46,6.46,0,0,0-2.0343,10.4224c3.2843,3.2842,9.3227,1.811,13.081.2188a29.5473,29.5473,0,0,0,8.83-6.4145c.8454-.8191,1.5743-1.51,2.262-2.0936l-4.7213,26.7905A137.27,137.27,0,0,1,99.2781,297.0834l-3.64.3912c2.8047-47.4565,10.62-83.35,12.5691-91.73l65.7366-65.7365a24.9231,24.9231,0,0,0,6.84-23.3826,132.9413,132.9413,0,0,1,35.0477-4.7159ZM76.7781,202.0053a19.2839,19.2839,0,0,1-12.07-18.0641v-16.975a57.5954,57.5954,0,0,1,57.53-57.5313H155.98a12.1779,12.1779,0,0,1,10.3666,5.4479,6.3339,6.3339,0,0,0,.8832,1.5379,12.473,12.473,0,0,1-2.3357,14.5361L98.7172,197.1347a6.38,6.38,0,0,0-1.2035,1.118A19.2867,19.2867,0,0,1,76.7781,202.0053Zm261.53,190.1765c-41.8918,11.249-86.8757,12.958-129.7454,6.9917a286.7792,286.7792,0,0,1-34.87-6.9932V346.9334a83.1571,83.1571,0,0,1,54.0619-77.3144c32.3238-11.8462,69.5047-1.7108,91.5,24.7077a82.5773,82.5773,0,0,1,19.0535,52.6067Zm78.9672-54.725c-1.0053,33.8717-32.8287,59.6233-66.1672,54.3318V346.9334a95.2536,95.2536,0,0,0-80.22-93.9342l11.7871-15.0721a11.8924,11.8924,0,0,0-9.3672-19.22H238.6922a11.8929,11.8929,0,0,0-9.3688,19.22l11.7873,15.0723a95.2536,95.2536,0,0,0-80.2185,93.934v44.8554a57.2739,57.2739,0,0,1-43.7735-11.0117,56.2939,56.2939,0,0,1-22.3953-43.32c-.2668-9.0058-.04-18.0388.2918-27.04l5.6317-.6053C166.4063,302.7428,220.35,252.3146,231.8281,187.18l5.0375-28.585c.5487.491,1.1231,1.0328,1.775,1.6646,4.9231,4.77,10.3018,8.0606,17.3875,8.0719,7.08.0113,12.4706-3.3112,17.3813-8.0734.6345-.6156,1.1945-1.144,1.73-1.6258L280.17,187.18c11.48,65.1343,65.4235,115.5625,131.1813,122.6312l5.6341.6055C417.3173,319.4184,417.5418,328.4508,417.275,337.4568Zm30.0172-153.5156a19.513,19.513,0,0,1-32.7988,14.3176,6.37,6.37,0,0,0-1.22-1.1328l-66.1691-66.1692a12.2588,12.2588,0,0,1-2.7328-13.739c.115-.2776.2636-.5252.3935-.79a6.3844,6.3844,0,0,0,.7768-1.3863,12.1828,12.1828,0,0,1,10.4781-5.6067h33.7406a57.5957,57.5957,0,0,1,57.5313,57.5313Z"/><path d="M154.6367,208.3574a19.6332,19.6332,0,1,0,39.2664,0v-7.7217H154.6367Z"/><path d="M337.7291,227.9906a19.6563,19.6563,0,0,0,19.6332-19.6332v-7.7217H318.0959v7.7217A19.6564,19.6564,0,0,0,337.7291,227.9906Z"/></g></svg>