<?xml version="1.0" ?><svg viewBox="0 0 512 512" xmlns="http://www.w3.org/2000/svg"><title/><g id="Siberian_husky"><path d="M433.3383,316.2479a223.758,223.758,0,0,1-53.2156-144.7734V147.3417c0-15.575-7.4141-71.4328-40.3563-122.086a20.7855,20.7855,0,0,0-34.8609-.1343c-24.55,37.6925-34.217,77.4312-37.9866,100.7656H245.0813c-3.7682-23.3317-13.4327-63.068-37.9868-100.7672A20.8154,20.8154,0,0,0,189.76,15.7261c-13.2122.0058-19.1526,11.53-24.86,21.6014a256.2635,256.2635,0,0,0-16.0624,34.0852,268.8443,268.8443,0,0,0-15.2385,57.0792,128.82,128.82,0,0,0-1.7217,18.85v24.1328A223.758,223.758,0,0,1,78.6617,316.2479a6.4045,6.4045,0,0,0-.9672,6.7563c.35.7812,8.0578,17.4922,32.1922,29.2844L97.243,365.9339a6.4036,6.4036,0,0,0-1.6016,5.4953c2.706,14.8922,9.2739,29.6856,16.4575,42.8645,15.7858,28.96,39.84,52.9911,69.9315,66.8866,20.267,9.3588,42.4377,13.9363,64.6774,14.8883,23.5968,1.01,47.5774-1.6363,69.9291-9.4885,32.7536-11.5064,59.9829-34.29,78.2462-63.6714,9.5561-15.3734,17.4145-32.6808,21.2626-50.4557.0738-.341.1506-.682.2129-1.0254a6.4017,6.4017,0,0,0-1.6016-5.4937l-12.6437-13.6453c24.1344-11.7922,31.8422-28.5032,32.1922-29.2844A6.4045,6.4045,0,0,0,433.3383,316.2479Zm-44.3235,27.7532a6.4,6.4,0,0,0-2.4484,10.3421l16.5422,17.8532a150.9671,150.9671,0,0,1-19.5737,45.733,137.2071,137.2071,0,0,1-63.8011,53.9488c-17.7348,7.2387-36.8125,10.7216-55.908,11.4412-20.0769.7565-40.42-1.2452-59.6607-7.1908a136.81,136.81,0,0,1-70.7594-50.8834,153.8859,153.8859,0,0,1-23.6979-49.8066q-.4314-1.6152-.8164-3.2422l16.5422-17.8532a6.4,6.4,0,0,0-2.4484-10.3421c-18.9141-7.0938-28.0532-17.6532-31.661-22.9532a236.5856,236.5856,0,0,0,53.3531-149.5734V147.3417c0-.5625,1.6454-58.7672,38.2875-115.1078a7.992,7.992,0,0,1,6.7985-3.7078,7.8959,7.8959,0,0,1,6.6062,3.58c22.7547,34.9364,32.0424,71.8012,35.8065,94.2028a108.3486,108.3486,0,0,0-36.2049,9.4363,6.4005,6.4005,0,0,0,5.3187,11.6438,95.979,95.979,0,0,1,40.1625-8.7016h29.1438a95.979,95.979,0,0,1,40.1625,8.7016,6.472,6.472,0,0,0,8.4812-3.1625,6.4006,6.4006,0,0,0-3.1625-8.4813,108.3418,108.3418,0,0,0-36.2523-9.44,265.099,265.099,0,0,1,12.5111-47.2644A241.8,241.8,0,0,1,304.8,50.6894q3.8392-7.3809,8.2153-14.465c2.2629-3.6544,4.33-7.7056,9.2226-7.6983a7.9894,7.9894,0,0,1,6.7969,3.7078c36.6421,56.3406,38.2875,114.5453,38.2875,115.1078v24.1328a236.597,236.597,0,0,0,53.3515,149.57C417.0508,326.3682,407.9117,336.9136,389.0148,344.0011Z"/><path d="M306.757,306.2573c-7.1995,0-5.8139,7.7294-7.3691,12.3919a18.9764,18.9764,0,0,1-36.5441-1.9521,11.0893,11.0893,0,0,0,1.8726-1.8632l14.4891-18.5313a10.9987,10.9987,0,0,0-8.6641-17.775H241.5586a11,11,0,0,0-8.6656,17.775l14.4922,18.5313.0015.0015a11.1086,11.1086,0,0,0,1.7852,1.8071c-3.6167,16.8436-26.9566,20.1755-35.21,5.0993a18.9557,18.9557,0,0,1-1.9062-5.1607c-.4183-1.9682-.12-4.1224-.7787-6.02a6.46,6.46,0,0,0-9.2643-3.43c-6.775,3.9644-1.7917,16.478,1.1537,21.5159a32.0809,32.0809,0,0,0,21.0545,15.1408v33.3648a31.7789,31.7789,0,0,0,63.5578,0V343.7878a32.0724,32.0724,0,0,0,21.0545-15.1408C311.8742,323.4459,317.8959,306.2573,306.757,306.2573Zm-31.7781,70.8953a18.9789,18.9789,0,0,1-37.9578,0V343.7878a31.8037,31.8037,0,0,0,18.98-12.086,31.8011,31.8011,0,0,0,18.9781,12.086Z"/><path d="M219.8752,246.3315v-10.139a14.4,14.4,0,0,0-28.8,0v10.139a14.4,14.4,0,0,0,28.8,0Z"/><path d="M306.5252,221.7925a14.4168,14.4168,0,0,0-14.4,14.4v10.139a14.4,14.4,0,1,0,28.8,0v-10.139A14.4169,14.4169,0,0,0,306.5252,221.7925Z"/><path d="M295.2633,167.17a59.7081,59.7081,0,0,0-39.2625,15.7484A59.7226,59.7226,0,0,0,216.7383,167.17a58.12,58.12,0,0,0-42.2547,17.0656,62.048,62.048,0,0,0-18.5516,43.9875l.0078,93.0438a29.8335,29.8335,0,0,0,8.4375,20.85l10.4485,10.7984-4.1578,4.2938a30.181,30.181,0,0,0-8.4907,20.9172c0,38.8219,24.9019,74.5164,61.2966,88.01,36.99,13.7146,79.618,2.1152,104.7644-28.1985a94.0618,94.0618,0,0,0,21.5859-59.7851A30.2088,30.2088,0,0,0,341.332,357.21l-4.1562-4.2953,10.4469-10.7984a29.8335,29.8335,0,0,0,8.4375-20.85l.0078-93.0438a62.048,62.048,0,0,0-18.5516-43.9875A58.3014,58.3014,0,0,0,295.2633,167.17ZM343.26,321.2667a17.1008,17.1008,0,0,1-4.836,11.95L323.67,348.4651a6.4011,6.4011,0,0,0,.0016,8.9016l8.4641,8.7453a17.32,17.32,0,0,1,4.889,12.0141,81.858,81.858,0,0,1-52.8691,75.9791c-31.94,11.8734-68.7417,1.8818-90.4854-24.2748a81.2968,81.2968,0,0,1-18.6924-51.7325,17.3023,17.3023,0,0,1,4.8875-11.9859l8.4657-8.7453a6.4,6.4,0,0,0,0-8.9016l-14.7547-15.2484a17.1008,17.1008,0,0,1-4.836-11.95l-.0078-93.0438a49.1718,49.1718,0,0,1,14.7172-34.8515,46.2955,46.2955,0,0,1,33.05-13.4047,46.9221,46.9221,0,0,1,34.65,16.314,6.6089,6.6089,0,0,0,9.7031,0,46.9171,46.9171,0,0,1,34.65-16.314,45.9428,45.9428,0,0,1,33.0485,13.4047,49.1718,49.1718,0,0,1,14.7172,34.8515Z"/></g></svg>