<?xml version="1.0" ?><svg viewBox="0 0 512 512" xmlns="http://www.w3.org/2000/svg"><title/><g id="Basenji"><path d="M360.8469,64.8a18.4464,18.4464,0,0,0-29.8-5.2656c-23.5655,23.6633-43.2274,52.3414-58.5823,85.202-1.21-.045-2.4156-.1239-3.63-.1239H243.1656c-1.214,0-2.4195.0789-3.6289.1235-15.3562-32.8618-35.02-61.54-58.5836-85.2016a18.4446,18.4446,0,0,0-29.8,5.2656c-22.7859,49.1391-27.4078,98.33-27.2734,130.9422a90.3671,90.3671,0,0,0,16.0312,51.0641l7.3391,10.6578q.33,2.0086.7469,4.0219c.0265.1312.0593.2625.0937.3937l39.3563,143.761a71.099,71.099,0,0,0,137.1062,0L363.9109,261.88c.0344-.1312.0672-.2625.0938-.3937q.4171-2.0133.7453-4.0219l7.3406-10.6578a90.377,90.377,0,0,0,16.03-51.0641C388.2547,163.13,383.6328,113.9389,360.8469,64.8ZM312.2062,402.2592a58.2926,58.2926,0,0,1-112.4124,0l-.3213-1.1738,10.3166-19.4481a37.2584,37.2584,0,0,1,21.6671-18.5156,31.7638,31.7638,0,0,0,18.6532-16.175L256,335.2155l5.8906,11.7312a31.7638,31.7638,0,0,0,18.6532,16.175,37.2584,37.2584,0,0,1,21.6671,18.5156l10.3166,19.4481Zm49.3422-162.7125-8.1656,11.8578a6.3857,6.3857,0,0,0-1.0609,2.6891q-.34,2.2968-.811,4.6031L317.46,383.07l-3.9428-7.4328a49.97,49.97,0,0,0-29.1609-24.7343,18.9177,18.9177,0,0,1-11.0282-9.7l-11.6093-23.1219a6.4568,6.4568,0,0,0-11.4375,0L238.6719,341.203a18.9177,18.9177,0,0,1-11.0282,9.7,49.97,49.97,0,0,0-29.1609,24.7343L194.54,383.07l-34.05-124.3715q-.471-2.3087-.8125-4.6047a6.3857,6.3857,0,0,0-1.0609-2.6891l-8.1641-11.8578A77.6249,77.6249,0,0,1,136.68,195.6889c-.13-31.3125,4.2922-78.5031,26.0859-125.5047a5.6472,5.6472,0,0,1,9.1188-1.6187c21.5594,21.6515,39.72,47.76,54.1588,77.6074a96.3829,96.3829,0,0,0-33.4744,12.6051,6.3978,6.3978,0,0,0-2.12,8.7984,6.4685,6.4685,0,0,0,8.7985,2.12,84.1279,84.1279,0,0,1,43.9187-12.2844h25.6688a84.1279,84.1279,0,0,1,43.9187,12.2844,6.4677,6.4677,0,0,0,8.7985-2.12,6.3978,6.3978,0,0,0-2.12-8.7984,96.3677,96.3677,0,0,0-33.4734-12.6047c14.4358-29.8461,32.5971-55.9547,54.1578-77.6063a5.6455,5.6455,0,0,1,9.1188,1.6172c21.7937,47.0016,26.2156,94.1922,26.0859,125.5047A77.6348,77.6348,0,0,1,361.5484,239.5467Z"/><path d="M204.6279,259.04a15.1379,15.1379,0,0,0-15.12,15.12v10.6461a15.12,15.12,0,0,0,30.24,0V274.16A15.1381,15.1381,0,0,0,204.6279,259.04Z"/><path d="M307.3723,259.04a15.1381,15.1381,0,0,0-15.12,15.12v10.6461a15.12,15.12,0,0,0,30.24,0V274.16A15.1381,15.1381,0,0,0,307.3723,259.04Z"/><path d="M271.2156,378.1592H240.7844a11.2294,11.2294,0,0,0-8.8469,18.1469l15.2172,19.4562a11.3436,11.3436,0,0,0,17.6922,0l15.2156-19.4593a11.2277,11.2277,0,0,0-8.8469-18.1438Z"/></g></svg>