<?xml version="1.0" ?><svg viewBox="0 0 512 512" xmlns="http://www.w3.org/2000/svg"><title/><g id="Chihuahua_long_hair"><path d="M192.675,258.0454a14.4168,14.4168,0,0,0,14.4-14.4V233.5063a14.4,14.4,0,1,0-28.8,0v10.1391A14.4169,14.4169,0,0,0,192.675,258.0454Z"/><path d="M304.925,233.5063v10.1391a14.4,14.4,0,0,0,28.8,0V233.5063a14.4,14.4,0,0,0-28.8,0Z"/><path d="M442.43,316.2571c-33.8125-37.28-46.4453-85.4219-49.5391-99.4047,21.725-14.3125,39.2016-16.2563,39.3641-16.2735a6.3987,6.3987,0,0,0,4.1953-10.5984,73.605,73.605,0,0,0-30.0406-20.3484,85.4039,85.4039,0,0,1,15.9484-9.2407,6.3983,6.3983,0,0,0,3.9813-5.1234c.7163-5.528-6.1221-8.6451-10.0893-10.94a61.14,61.14,0,0,0-11.1154-5.113c2.8125-31.08.93-61.0969-5.6078-89.311a22.5234,22.5234,0,0,0-35.4547-12.9046c-32.6953,24.5968-55.4328,54.3546-69.3438,76.3171l-15.3047-4.3078a6.407,6.407,0,0,0-7.7406,8.3735,80.26,80.26,0,0,1,3.7486,20.316c-.5218-.009-1.0419-.0488-1.5642-.0488H238.1328c-.5223,0-1.0424.04-1.5642.0488a80.4007,80.4007,0,0,1,3.7423-20.3035,6.4,6.4,0,0,0-7.7343-8.386l-15.3047,4.3078c-13.911-21.964-36.65-51.7234-69.3422-76.3171a22.5248,22.5248,0,0,0-35.4563,12.9031c-6.5375,28.2125-8.4187,58.23-5.6062,89.3125a68.38,68.38,0,0,0-18.6641,10.0828,6.46,6.46,0,0,0,1.4282,11.0891,85.5669,85.5669,0,0,1,15.9593,9.2453A73.5947,73.5947,0,0,0,75.55,189.9805a6.4092,6.4092,0,0,0,4.1734,10.5969c.1829.0187,17.6625,1.9625,39.3907,16.2781-3.0782,13.9688-15.6563,62.0391-49.5438,99.4016a6.3992,6.3992,0,0,0-1.4406,5.9562c1.6134,6.0281,13.1283,6.8924,18.0079,7.8852a166.2981,166.2981,0,0,0,39.7483,3.4289c-6.425,14.3312-12.3984,41.1047,7.3516,75.4344a6.398,6.398,0,0,0,9.2828,2.0031l22.3-16.0344c3.4531,11.3266,11.4063,30.2391,28.4578,44.3672a6.3971,6.3971,0,0,0,8.6922-.4891l11.12-11.5453c5.42,13.3375,17.4422,36.6625,39.3735,51.2.0769.0512.1646.0664.2429.1137a6.3235,6.3235,0,0,0,1.109.5191c.17.0618.3317.1438.5045.1907a6.4107,6.4107,0,0,0,1.61.2328c.0671.0012.0733,0,.1408,0a6.4156,6.4156,0,0,0,1.6041-.2321c.1779-.0484.3439-.132.5187-.1964a6.3368,6.3368,0,0,0,1.0952-.5122c.0794-.0484.1685-.064.2466-.1156,21.9313-14.5375,33.9532-37.8625,39.3735-51.2l11.12,11.5453a6.3971,6.3971,0,0,0,8.6922.4891c17.0515-14.1281,25.0047-33.0406,28.4578-44.3672l22.3016,16.0359a6.3979,6.3979,0,0,0,9.2828-2.0062c19.7484-34.3281,13.775-61.1016,7.35-75.4328a170.8226,170.8226,0,0,0,53.5312-6.8766,6.4012,6.4012,0,0,0,2.7844-10.3937Zm-67.1578,3.489a6.4091,6.4091,0,0,0-5.8281,10.3985c.9062,1.1172,20.93,26.5609,1.5671,66.1562l-24.0437-17.289a6.4,6.4,0,0,0-10.0594,4.2093c-.0406.261-3.9953,24.3766-21.9672,42.236l-13.9922-14.5266a6.4034,6.4034,0,0,0-10.775,2.7219c-.0955.3422-9.45,32.884-34.1734,51.614-24.7234-18.73-34.0777-51.2718-34.1719-51.6062a6.3983,6.3983,0,0,0-10.7765-2.73l-13.9907,14.525c-17.8656-17.7859-21.9281-41.9844-21.9687-42.2344a6.4,6.4,0,0,0-10.0594-4.2093l-24.0422,17.289c-19.364-39.5953.6578-65.039,1.5438-66.1312a6.4,6.4,0,0,0-5.8063-10.4235c-19.875,2.7516-39.5937-.3468-50.875-2.8265,36.73-45.3563,46.2766-99.4719,46.686-101.8844a6.401,6.401,0,0,0-2.6172-6.3A127.2067,127.2067,0,0,0,93.5672,190.62,61.3892,61.3892,0,0,1,120.02,178.9883a6.401,6.401,0,0,0,3.6485-11.0187,107.9319,107.9319,0,0,0-18.7235-14.061,34.9827,34.9827,0,0,1,9.5531-3.5,6.4006,6.4006,0,0,0,5.6422-7.0468c-3.4125-31.6188-1.7968-62.0907,4.8016-90.57a9.7264,9.7264,0,0,1,15.2922-5.564,262.4031,262.4031,0,0,1,44.7465,43.2284q8.2228,10.0062,15.5464,20.7083,3.1289,4.5673,6.0874,9.2484c2.2142,3.5039,4.4662,7.9349,9.4978,6.5274l9.2328-2.5985a100.1271,100.1271,0,0,0-1.6619,14.4879,93.4383,93.4383,0,0,0-21.5652,6.1078c-4.8352,2.03-14.5217,5.4632-10.6651,12.5622a6.4635,6.4635,0,0,0,8.6782,2.5687,79.8409,79.8409,0,0,1,38.0015-9.6187h35.7344a79.8409,79.8409,0,0,1,38.0015,9.6187,6.4643,6.4643,0,0,0,8.6782-2.5687,6.3987,6.3987,0,0,0-2.5688-8.6782,92.3488,92.3488,0,0,0-29.6613-9.9918,100.1246,100.1246,0,0,0-1.6621-14.4879l9.2328,2.5985a6.4042,6.4042,0,0,0,7.1953-2.8235c13.02-21.3,35.5063-51.93,68.6844-76.889a9.725,9.725,0,0,1,15.2906,5.5656c6.5985,28.4813,8.2141,58.9531,4.8031,90.5688a6.4635,6.4635,0,0,0,5.5719,7.0375,34.8224,34.8224,0,0,1,9.62,3.5093,108.0048,108.0048,0,0,0-18.7219,14.061,6.401,6.401,0,0,0,3.6485,11.0187,60.216,60.216,0,0,1,26.4719,11.6266,127.1709,127.1709,0,0,0-36.3735,18.12,6.401,6.401,0,0,0-2.6172,6.3c.4094,2.4125,9.9563,56.5344,46.6938,101.8922C414.8953,319.4086,395.2062,322.5118,375.2719,319.7461Z"/><path d="M210.7672,214.8727a24.152,24.152,0,0,0,15.5569-42.6314c-16.9392-14.2892-43.2929,1.0278-39.3279,22.8077A24.4171,24.4171,0,0,0,210.7672,214.8727Zm0-35.52a11.36,11.36,0,1,1-11.3438,11.8026A11.4828,11.4828,0,0,1,210.7672,179.3524Z"/><path d="M308.6078,265.443H279.4963a10.6682,10.6682,0,0,0-.9119-2.7937,10.4829,10.4829,0,0,0-9.4891-5.9329H242.9047a10.4821,10.4821,0,0,0-9.4875,5.93,10.6879,10.6879,0,0,0-.9127,2.7969H203.3922a30.7742,30.7742,0,0,0-26.025,14.2594,30.4545,30.4545,0,0,0-2.0469,29.2937,88.8918,88.8918,0,0,0,161.3578.0016,30.4529,30.4529,0,0,0-2.0453-29.2953A30.7742,30.7742,0,0,0,308.6078,265.443Zm16.4469,38.1938a76.0849,76.0849,0,0,1-138.1109-.0016,17.4777,17.4777,0,0,1,1.2046-17.0328,18.0281,18.0281,0,0,1,15.2438-8.3594H238.084l9.6,12.2766a10.6023,10.6023,0,0,0,1.3254,1.3492,13.1975,13.1975,0,0,1-25.4337-.316c-.9934-3.759-.17-7.8267-4.7409-9.4127a6.4594,6.4594,0,0,0-8.4377,5.1658c-.57,3.8142.7459,8.3336,2.3322,11.7625A25.99,25.99,0,0,0,256,305.2149c11.4229,13.14,32.8633,11.2783,41.8856-3.5552,3.0255-4.9744,7.6029-18.5494-1.7547-19.827-4.4208-.6036-6.882,2.8815-7.2825,6.7759-.3943,3.8334-1.7276,7.21-4.7667,9.7382a13.3052,13.3052,0,0,1-21.0917-6.4784,10.6023,10.6023,0,0,0,1.3241-1.3488l9.6023-12.2766h34.6914a18.0281,18.0281,0,0,1,15.2438,8.3594A17.4764,17.4764,0,0,1,325.0547,303.6368Z"/><path d="M301.2328,214.8727A24.1516,24.1516,0,0,0,316.79,172.2413c-16.94-14.2888-43.2916,1.0273-39.327,22.8077A24.4154,24.4154,0,0,0,301.2328,214.8727Zm0-35.52a11.36,11.36,0,1,1-11.3422,11.8026A11.4841,11.4841,0,0,1,301.2328,179.3524Z"/></g></svg>