<?xml version="1.0" ?><svg viewBox="0 0 512 512" xmlns="http://www.w3.org/2000/svg"><title/><g id="Poodle"><path d="M447.5227,338.9218a29.68,29.68,0,0,0-13.6485-18.9766,29.4325,29.4325,0,0,0-14.5281-40.7516,29.53,29.53,0,0,0-20.9781-38.6343,29.4818,29.4818,0,0,0-28.5063-34.4422,28.3151,28.3151,0,0,0-.28-2.8731,29.4631,29.4631,0,0,0,5.5773-18.041,6.4474,6.4474,0,0,0-.0547-.6765A29.5014,29.5014,0,0,0,362.7617,162.02a29.5583,29.5583,0,0,0-19.9187-44.875A29.5355,29.5355,0,0,0,303.9367,86.064a29.4862,29.4862,0,0,0-47.6375-10.3954,29.5231,29.5231,0,0,0-47.7156,10.1563A29.5123,29.5123,0,0,0,169.5211,116.68a29.5693,29.5693,0,0,0-20.1844,44.7844,29.4254,29.4254,0,0,0-6.8359,41.3832,28.4684,28.4684,0,0,0-.361,3.27,29.4821,29.4821,0,0,0-28.5078,34.4422,29.5295,29.5295,0,0,0-20.9781,38.6359,29.4307,29.4307,0,0,0-14.5281,40.75A29.4553,29.4553,0,0,0,72.607,366.23a29.5309,29.5309,0,0,0,21.361,48.02A29.552,29.552,0,0,0,141.96,435.8a29.5346,29.5346,0,0,0,50.1109-16.0328,29.1571,29.1571,0,0,0,17.1324-4.3768,47.0758,47.0758,0,0,0,35.99,16.6955h21.614a47.0764,47.0764,0,0,0,36.011-16.7207,29.13,29.13,0,0,0,17.1109,4.402A29.5346,29.5346,0,0,0,370.04,435.8a29.55,29.55,0,0,0,47.9922-21.5484A29.5328,29.5328,0,0,0,439.393,366.23,29.6409,29.6409,0,0,0,447.5227,338.9218ZM161.4164,169.6093a6.3987,6.3987,0,0,0,2.2141-11.0235,16.7169,16.7169,0,0,1,13.1437-29.3343,6.4,6.4,0,0,0,6.7875-8.8844,16.7075,16.7075,0,0,1,25.4016-19.9938,6.4,6.4,0,0,0,10.2578-4.63A16.73,16.73,0,0,1,250.632,89.089a6.4021,6.4021,0,0,0,5.63,3.3781,6.4856,6.4856,0,0,0,5.6422-3.3547,16.6979,16.6979,0,0,1,29.3389-.0139c2.1582,3.9418,1.0407,10.052,5.7064,12.1967a6.3939,6.3939,0,0,0,6.5063-.6891,16.7287,16.7287,0,0,1,25.3172,20.1579,6.4561,6.4561,0,0,0,6.7531,8.9234,16.7045,16.7045,0,0,1,12.95,29.3984,6.4005,6.4005,0,0,0,2.1765,11.0375,16.6789,16.6789,0,0,1,11.6844,15.4453c.0047.1719.0156.3422.0344.511a16.7476,16.7476,0,0,1-12.8344,16.239,6.3987,6.3987,0,0,0-3.3484,10.4485,16.7006,16.7006,0,0,1-22.6047,24.35,6.4,6.4,0,0,0-10.2266,4.4469,16.726,16.726,0,0,1-26.6214,11.6879c-3.4083-2.5549-5.0315-7.8406-10.03-7.5083a6.3991,6.3991,0,0,0-5.3969,3.7829,16.776,16.776,0,0,1-15.2938,9.9765h-.4984A16.8074,16.8074,0,0,1,240.21,249.4858a6.4,6.4,0,0,0-11.2766-.8156,16.71,16.71,0,0,1-30.7766-7.2828,6.4,6.4,0,0,0-10.189-4.5344,16.693,16.693,0,0,1-22.386-24.5422,6.4553,6.4553,0,0,0-3.2328-10.4984,16.7251,16.7251,0,0,1-.9328-32.2031Zm26.6422,236.3812a6.3988,6.3988,0,0,0-8.5547,6.8469,16.699,16.699,0,0,1-11.4969,18.1031,16.8856,16.8856,0,0,1-19.82-8.0719,6.4,6.4,0,0,0-10.939-.6265,16.7347,16.7347,0,0,1-30.4552-8.0584c-.2366-2.8615,1.1611-5.89.3873-8.649a6.452,6.452,0,0,0-7.6743-4.5207,16.7084,16.7084,0,0,1-13.3407-30.0454,6.4005,6.4005,0,0,0-.6218-10.9656,16.7007,16.7007,0,0,1,3.9406-31.0484,6.4,6.4,0,0,0,3.0328-10.7625,16.7037,16.7037,0,0,1,10.1641-28.5156,6.4547,6.4547,0,0,0,4.48-10.2454,16.7331,16.7331,0,0,1,14.5562-26.825,6.3985,6.3985,0,0,0,6.1656-9.3171,16.6928,16.6928,0,0,1,19.6094-23.6766,6.3473,6.3473,0,0,0,1.2768.1988,29.4835,29.4835,0,0,0,8.2591,24.37,29.0343,29.0343,0,0,0,5.6579,4.3833l36.7062,147.7089a47.4247,47.4247,0,0,0,2.9221,8.2907A16.4553,16.4553,0,0,1,188.0586,405.9905Zm112.1281-12.8047a34.3372,34.3372,0,0,1-33.38,26.1H245.193a34.3372,34.3372,0,0,1-33.38-26.1L176.9305,252.8149a29.6412,29.6412,0,0,0,10.6984-1.4963,29.54,29.54,0,0,0,45.9781,11.2141,29.6344,29.6344,0,0,0,21.8891,9.77h.5187a29.5393,29.5393,0,0,0,21.8719-9.7187,29.3273,29.3273,0,0,0,23.9328,6.3312,29.6226,29.6226,0,0,0,21.98-17.3344,29.6149,29.6149,0,0,0,11.1844,1.58Zm125.6485-22.2172a16.7086,16.7086,0,0,1-13.3407,30.0454,6.4782,6.4782,0,0,0-7.5509,4.0727c-1.026,2.8855.5127,6.0889.2638,9.0973a16.8391,16.8391,0,0,1-9.8332,13.8409,16.6669,16.6669,0,0,1-20.6219-5.7828,6.4,6.4,0,0,0-10.939.6265,16.8864,16.8864,0,0,1-19.8219,8.0719l-.0047-.0015a16.6929,16.6929,0,0,1-11.489-18.1A6.4015,6.4015,0,0,0,330.1539,407a6.4851,6.4851,0,0,0-6.2094-1.0094,16.5522,16.5522,0,0,1-14.2765-1.3886,47.41,47.41,0,0,0,2.9406-8.3286L349.284,248.6886a28.94,28.94,0,0,0,5.0855-3.9325,29.4407,29.4407,0,0,0,8.478-24.8818,6.3475,6.3475,0,0,0,1.6627-.2619A16.6923,16.6923,0,0,1,384.118,243.289a6.3991,6.3991,0,0,0,6.1672,9.3171,16.7324,16.7324,0,0,1,14.5546,26.825,6.4547,6.4547,0,0,0,4.48,10.2454,16.7036,16.7036,0,0,1,10.1641,28.5156,6.4563,6.4563,0,0,0,3.0328,10.7625,16.7,16.7,0,0,1,3.9406,31.0484,6.4005,6.4005,0,0,0-.6218,10.9656Z"/><path d="M267.4852,368.4983h-22.97a10.0446,10.0446,0,0,0-7.9109,16.2328l11.4844,14.6844a10.1432,10.1432,0,0,0,15.8234.0016L275.4008,384.73a10.0465,10.0465,0,0,0-7.9156-16.2313Z"/><path d="M215.0881,276.3063a14.417,14.417,0,0,0-14.4,14.4v10.1391a14.4,14.4,0,0,0,28.8,0V290.7063A14.4171,14.4171,0,0,0,215.0881,276.3063Z"/><path d="M296.94,276.3063a14.4169,14.4169,0,0,0-14.4,14.4v10.1391a14.4,14.4,0,0,0,28.8,0V290.7063A14.417,14.417,0,0,0,296.94,276.3063Z"/></g></svg>