<?xml version="1.0" ?><svg viewBox="0 0 512 512" xmlns="http://www.w3.org/2000/svg"><title/><g id="Pug"><path d="M303.8914,192.1027c-3.2484,0-4.6484-1.225-7.5031-3.9968-4.6508-4.5147-9.7268-7.6013-16.4188-7.6125-6.6836-.0113-11.7823,3.1069-16.425,7.6093-5.1442,4.9869-9.8945,4.9864-15.0437,0-4.6569-4.514-9.7373-7.5982-16.4328-7.6093-6.6862-.0111-11.7872,3.1061-16.4328,7.6093-1.4433,1.3976-2.9286,2.9478-4.8766,3.609-1.9632.6663-4.014.1728-5.88,1.2649a6.4692,6.4692,0,0,0-1.2953,10.0515c3.0843,3.0843,8.4959,1.9318,12.1318.5133a27.0585,27.0585,0,0,0,8.8264-6.248c5.1481-4.9852,9.9018-4.9883,15.0531,0,4.6568,4.514,9.7373,7.5983,16.4328,7.6093,6.6853.011,11.7844-3.1073,16.4282-7.6109,5.1361-4.9789,9.88-4.99,15.0172-.0016,4.4753,4.3444,10.2367,8.3124,16.8529,7.5833C312.1871,204.0072,311.9527,192.1027,303.8914,192.1027Z"/><path d="M423.5227,148.8637,401.32,141.7231a29.6507,29.6507,0,0,0-30.2226,7.1734A104.2013,104.2013,0,0,0,308.92,128.3652H203.0805a104.1952,104.1952,0,0,0-62.175,20.5321,29.6532,29.6532,0,0,0-30.2235-7.1742l-22.2047,7.1406a50.448,50.448,0,0,0-34.5609,56.2969l5.6813,35.5234a29.6184,29.6184,0,0,0,25.5937,25.0922,30.7879,30.7879,0,0,0,13.0438-.9485v56.886c0,21.45,33.9384,36.5054,78.5712,44.4859a33.0572,33.0572,0,0,0,4.94,6.586,36.8007,36.8007,0,0,0,34.8781,9.8093l39.3766-9.57,39.3765,9.57a36.8051,36.8051,0,0,0,34.8782-9.8093,33.0559,33.0559,0,0,0,4.9392-6.5856c44.6324-7.9809,78.57-23.0363,78.57-44.4863v-56.886a30.8039,30.8039,0,0,0,13.0469.9485,29.6168,29.6168,0,0,0,25.5906-25.0922l5.6813-35.5234A50.447,50.447,0,0,0,423.5227,148.8637Zm-318.4422,94.389a17.342,17.342,0,0,1-32.8422-4.5906L66.557,203.1387a37.7162,37.7162,0,0,1,25.8391-42.0906l22.2047-7.1407a17.3432,17.3432,0,0,1,21.0265,23.8407Zm144.52,118.1547-35.9985,8.75a23.7277,23.7277,0,0,1-22.65-6.264,18.3883,18.3883,0,0,1-4.7953-18.07c4.6311-16.5344,17.9022-51.3915,49.2578-62.3719l11.5188,14.73a11.4592,11.4592,0,0,0,2.6672,2.4007Zm71.4484,2.4844a23.7038,23.7038,0,0,1-22.65,6.2656l-35.9984-8.75V300.5816a11.4629,11.4629,0,0,0,2.6656-2.3992l.0016-.0015,11.5187-14.73c31.3555,10.98,44.6252,45.8375,49.2563,62.3719A18.3871,18.3871,0,0,1,321.0492,363.8918Zm79.9156-42.1781c0,10.1824-22.3712,22.91-61.7535,30.83A30.9353,30.9353,0,0,0,338.168,342.37c-9.8416-35.1414-29.4823-59.689-54.7491-69.8621a11.4844,11.4844,0,0,0-11.32-13.5113H239.9023a11.4852,11.4852,0,0,0-11.3207,13.5121c-25.266,10.1734-44.907,34.7211-54.75,69.8629a30.9237,30.9237,0,0,0-1.0427,10.1781c-39.3875-7.92-61.7541-20.6523-61.7541-30.8359V256.8926a30.92,30.92,0,0,0,5.6453-8.2305l30.5468-65.5047a29.7014,29.7014,0,0,0,.77-23.6172,91.5137,91.5137,0,0,1,55.0828-18.375H308.92a91.554,91.554,0,0,1,55.0889,18.361,29.7014,29.7014,0,0,0,.7658,23.6312L395.32,248.6621a30.92,30.92,0,0,0,5.6453,8.2305Zm44.4782-118.575-5.6813,35.5234a17.342,17.342,0,0,1-32.8422,4.5906l-30.5453-65.5046a17.1525,17.1525,0,0,1,2.711-18.8016,17.3761,17.3761,0,0,1,18.3156-5.0391l22.2031,7.1407A37.7162,37.7162,0,0,1,445.443,203.1387Z"/><path d="M169.7,241.4535a16.589,16.589,0,0,0-16.57,16.57V269.69a16.57,16.57,0,1,0,33.1392,0V258.0231A16.589,16.589,0,0,0,169.7,241.4535Z"/><path d="M342.3012,241.4535a16.5891,16.5891,0,0,0-16.57,16.57V269.69a16.57,16.57,0,1,0,33.1393,0V258.0231A16.589,16.589,0,0,0,342.3012,241.4535Z"/></g></svg>