<?xml version="1.0" ?><svg viewBox="0 0 512 512" xmlns="http://www.w3.org/2000/svg"><title/><g id="Miniature_poodle"><path d="M294.0617,328.4438c-5.0415,0-5.9755,4.1514-6.5156,8.1137a12.6142,12.6142,0,0,1-24.6147,1.8,10.019,10.019,0,0,0,.9538-.9717L275.3727,322.7a10.0465,10.0465,0,0,0-7.9157-16.2313H244.4883a10.0435,10.0435,0,0,0-7.9125,16.2329L248.06,337.3859a10.0014,10.0014,0,0,0,.9539.9721,12.61,12.61,0,0,1-24.278-.1562c-1.034-3.75-.1652-7.7976-4.7563-9.3922a6.4326,6.4326,0,0,0-8.3527,4.7493c-.7738,3.5769.5295,8.0979,1.9457,11.36a25.7125,25.7125,0,0,0,16.9918,14.5322,25.4178,25.4178,0,0,0,50.8176,0,25.7263,25.7263,0,0,0,16.4387-13.3381C300.3437,341.0422,303.3906,328.4438,294.0617,328.4438Zm-38.089,42.9484a12.6266,12.6266,0,0,1-12.5752-11.9682,25.4411,25.4411,0,0,0,12.5754-7.7629,25.44,25.44,0,0,0,12.5765,7.7631A12.6277,12.6277,0,0,1,255.9727,371.3922Z"/><path d="M463.1492,310.7859a29.6,29.6,0,0,0-12.4969-24.114,29.5162,29.5162,0,0,0-26.1109-42.3969,29.3537,29.3537,0,0,0-20.2035-22.6762A29.4543,29.4543,0,0,0,385.8664,189.2a29.5077,29.5077,0,0,0-26.97-36.8219,29.5342,29.5342,0,0,0-37.0281-26.73,29.5568,29.5568,0,0,0-43.5094-13.9875,29.4844,29.4844,0,0,0-22.7594-10.7062h-.0922a29.4322,29.4322,0,0,0-22.78,10.839,29.5274,29.5274,0,0,0-43.4156,14.25,29.54,29.54,0,0,0-36.8625,26.9313A29.542,29.542,0,0,0,125.6773,189.97,29.4776,29.4776,0,0,0,107.29,221.6938a29.37,29.37,0,0,0-19.831,22.5812,29.5159,29.5159,0,0,0-26.1109,42.3969,29.5076,29.5076,0,0,0,2.4046,49.75,29.3586,29.3586,0,0,0,9.6594,32.3062l.0047.0031a29.8246,29.8246,0,0,0,38.6984-1.6656,29.75,29.75,0,0,0,34.4516-3.7437,28.9548,28.9548,0,0,0,3.7147-4.1764c.8484.1229,1.6994.2361,2.56.2842a29.5508,29.5508,0,0,0,36.9734,26.7937,29.5547,29.5547,0,0,0,43.4844,14.0594,29.5329,29.5329,0,0,0,45.6281-.0328,29.558,29.558,0,0,0,43.4579-14.1531,29.5033,29.5033,0,0,0,36.9078-26.875q1.1653-.0663,2.3156-.2272a28.9594,28.9594,0,0,0,3.8281,4.3287,29.7481,29.7481,0,0,0,34.4578,3.736,29.8138,29.8138,0,0,0,38.6938,1.6687,29.3654,29.3654,0,0,0,9.6609-32.3062A29.545,29.545,0,0,0,463.1492,310.7859ZM147.0477,325.0281a6.4,6.4,0,0,0-5.236,9.1516,16.7188,16.7188,0,0,1-26.4125,19.5344,6.4025,6.4025,0,0,0-9.7656,1.28,9.5815,9.5815,0,0,1-.7719,1.0688A16.8826,16.8826,0,0,1,81.39,358.7187a16.5994,16.5994,0,0,1-3.62-22.1171,6.4658,6.4658,0,0,0-3.7172-9.6766c-15.4338-4.1087-16.41-26.4562-1.3578-31.8641a6.4006,6.4006,0,0,0,2.6422-10.2468,16.7121,16.7121,0,0,1,16.5485-27.2532,6.4,6.4,0,0,0,7.9281-6.6687,16.7017,16.7017,0,0,1,33.1156-4.0453c.0813.4734.1453.9468.1844,1.4406a6.4028,6.4028,0,0,0,7.9515,5.6875,16.701,16.701,0,0,1,13.73,29.8141,6.3985,6.3985,0,0,0,.1375,10.5359,16.8444,16.8444,0,0,1,7.03,17.58l-.0125.0406c-.0422.1391-.0859.2875-.1015.3469q-.0681.2484-.1125.4969c-.011.0343-.0172.0578-.0188.0609A16.754,16.754,0,0,1,147.0477,325.0281Zm209.19,21.3506a16.3429,16.3429,0,0,1-2.4514-.3553,6.4006,6.4006,0,0,0-7.689,7.6875A16.7,16.7,0,0,1,321.21,371.8437a6.4014,6.4014,0,0,0-9.6829,4.9485,16.724,16.724,0,0,1-29.2968,9.5469,6.4,6.4,0,0,0-10.7391,1.6968,16.6546,16.6546,0,0,1-15.3781,10.2094,16.42,16.42,0,0,1-15.4063-10.1969,6.3994,6.3994,0,0,0-10.739-1.67,16.7257,16.7257,0,0,1-29.32-9.4906,6.4009,6.4009,0,0,0-9.6969-4.9188,16.7172,16.7172,0,0,1-24.9281-18.0734,6.4594,6.4594,0,0,0-7.6969-7.6672,16.1938,16.1938,0,0,1-2.5924.3725,29.7735,29.7735,0,0,0,.0283-10.5131,29.5954,29.5954,0,0,0,18.2625-19.7234c.0047-.011.1688-.5813.1719-.5938a6.0238,6.0238,0,0,0,.1437-.5906c.011-.0406.02-.08.03-.12a29.7177,29.7177,0,0,0-6.45-26.1766,29.4911,29.4911,0,0,0-23.3531-48.2,29.5178,29.5178,0,0,0-24.52-20.2738,16.67,16.67,0,0,1,14.967-19.6043,6.4008,6.4008,0,0,0,4.9187-9.6969,16.723,16.723,0,0,1,18.0719-24.9547,6.4009,6.4009,0,0,0,7.6625-7.7156,16.71,16.71,0,0,1,24.8609-18.1516,6.4011,6.4011,0,0,0,9.6594-4.9625,16.7238,16.7238,0,0,1,29.2875-9.6109,6.3773,6.3773,0,0,0,5.8469,2.1109c4.64-.7506,5.4267-6.0781,8.3065-9.0362a16.7981,16.7981,0,0,1,11.9185-5.0325h.0516a16.7963,16.7963,0,0,1,11.6034,4.6809c3.041,2.9306,3.9825,8.5605,8.6966,9.2816a6.3845,6.3845,0,0,0,5.83-2.1625,16.7114,16.7114,0,0,1,29.311,9.4406,6.4,6.4,0,0,0,9.7109,4.9109,16.7105,16.7105,0,0,1,24.9688,18.025,6.4009,6.4009,0,0,0,7.7156,7.6625A16.6934,16.6934,0,0,1,371.62,190.4156a6.4607,6.4607,0,0,0,4.9766,9.67,16.72,16.72,0,0,1,14.95,20.3844,29.491,29.491,0,0,0-24.1127,20.2125,29.491,29.491,0,0,0-23.3531,48.2,29.7258,29.7258,0,0,0-6.45,26.1766c.0468.1984.1031.3937.1672.5843.0421.2188.0937.4329.1546.6438a29.6632,29.6632,0,0,0,18.2875,19.8A29.7613,29.7613,0,0,0,356.2381,346.3787Zm81.7111-19.4537a6.4664,6.4664,0,0,0-3.7187,9.6766,16.5985,16.5985,0,0,1-3.6157,22.114,16.9044,16.9044,0,0,1-23.5656-2.7625,8.9,8.9,0,0,1-.6828-.9594,6.402,6.402,0,0,0-4.5828-2.9312,6.47,6.47,0,0,0-5.1828,1.6516A16.7182,16.7182,0,0,1,370.19,334.18a6.4016,6.4016,0,0,0-5.2375-9.1516A16.754,16.754,0,0,1,350.2836,312.85c-.0016-.0031-.0078-.025-.0172-.0578-.0312-.1672-.0687-.3344-.1141-.5-.0062-.0219-.0125-.0438-.0171-.0656-.0391-.1735-.086-.3453-.1375-.5141a16.8482,16.8482,0,0,1,7.07-17.3875,6.3985,6.3985,0,0,0,.1375-10.5359,16.7009,16.7009,0,0,1,13.73-29.8141,6.4028,6.4028,0,0,0,7.9515-5.6875c.0391-.4938.1031-.9672.1844-1.4406a16.7023,16.7023,0,0,1,33.1156,4.0453,6.4,6.4,0,0,0,7.9281,6.6687,16.7119,16.7119,0,0,1,16.5485,27.2532,6.4021,6.4021,0,0,0,2.6437,10.2468C454.3562,300.469,453.3823,322.8157,437.9492,326.925Z"/><path d="M221.4469,281.2939v-10.139a14.4,14.4,0,0,0-28.8,0v10.139a14.4,14.4,0,0,0,28.8,0Z"/><path d="M304.8984,256.7549a14.417,14.417,0,0,0-14.4,14.4v10.139a14.4,14.4,0,0,0,28.8,0v-10.139A14.4168,14.4168,0,0,0,304.8984,256.7549Z"/></g></svg>