<?xml version="1.0" ?><svg viewBox="0 0 512 512" xmlns="http://www.w3.org/2000/svg"><title/><g id="Shiba_inu"><path d="M195.9127,279.2956a14.4172,14.4172,0,0,0,14.4-14.4V254.7565a14.4,14.4,0,0,0-28.8,0v10.1391A14.4171,14.4171,0,0,0,195.9127,279.2956Z"/><path d="M301.7627,254.7565v10.1391a14.4,14.4,0,1,0,28.8,0V254.7565a14.4,14.4,0,0,0-28.8,0Z"/><path d="M218.6766,232.1987a24.1517,24.1517,0,0,0,15.5576-42.6314c-16.94-14.2888-43.2917,1.0273-39.3271,22.8077A24.4154,24.4154,0,0,0,218.6766,232.1987Zm0-35.52a11.36,11.36,0,1,1-11.3423,11.8026A11.484,11.484,0,0,1,218.6766,196.6784Z"/><path d="M293.3984,232.1987a24.152,24.152,0,0,0,15.557-42.6314c-16.9392-14.2892-43.293,1.0278-39.3279,22.8077A24.417,24.417,0,0,0,293.3984,232.1987Zm0-35.52a11.36,11.36,0,1,1-11.3438,11.8026A11.4828,11.4828,0,0,1,293.3984,196.6784Z"/><path d="M380.1344,185.0565V156.305c0-15.5657-7.4078-71.3969-40.3266-122.0375a20.8422,20.8422,0,0,0-34.9469-.1344C280.33,71.8167,270.673,111.5323,266.907,134.8518H245.068c-3.766-23.3195-13.4225-63.0351-37.9539-100.7172a20.82,20.82,0,0,0-34.9235.1329c-32.9172,50.639-40.325,106.4718-40.325,122.0375v28.7515c-2.0984,9.0016-22.3469,97.47-29.1625,186.8344a6.4311,6.4311,0,0,0,.0266,1.25c1.6419,13.6207,7.293,27.3975,13.6035,39.4153a134.2729,134.2729,0,0,0,65.8921,60.969c20.5,8.8177,42.7979,12.7929,65.0195,13.5905,23.2058.8329,46.7932-1.402,68.9728-8.5229,31.1147-9.99,57.8689-30.1473,74.9512-58.1051,8.5683-14.0233,15.3885-30.1061,17.9669-46.44.0477-.3019.098-.6039.1346-.9073a6.4311,6.4311,0,0,0,.0266-1.25C402.4812,282.5268,382.2328,194.0581,380.1344,185.0565Zm-235.6438,2.225a6.4164,6.4164,0,0,0,.175-1.4844V156.305c0-.5625,1.6438-58.736,38.2563-115.0625a8.0206,8.0206,0,0,1,13.464-.125c22.7338,34.92,32.0147,71.7652,35.7768,94.1558a108.3546,108.3546,0,0,0-36.2033,9.4348,6.4,6.4,0,0,0,5.3187,11.6437,95.9773,95.9773,0,0,1,40.161-8.7h29.1437a95.979,95.979,0,0,1,40.1625,8.7,6.4712,6.4712,0,0,0,8.4813-3.1625,6.4015,6.4015,0,0,0-3.1625-8.4812,108.361,108.361,0,0,0-36.2278-9.4367c3.7639-22.393,13.0471-59.24,35.7778-94.1555a7.7812,7.7812,0,0,1,6.6218-3.5953,8.0212,8.0212,0,0,1,6.8172,3.7219c36.6141,56.3281,38.2578,114.5,38.2578,115.0625v29.4921a6.3523,6.3523,0,0,0,.2237,1.5915c.56,2.371,18.0945,76.98,26.6283,159.2562A57.633,57.633,0,0,1,360.2016,330.11l-6.2985-6.2984a70.4416,70.4416,0,0,0-50.1343-20.7656H280.2873a10.911,10.911,0,0,0-9.7576-5.9547H241.5453a10.912,10.912,0,0,0-9.7576,5.9547H208.23a70.4479,70.4479,0,0,0-50.1359,20.7656l-6.2954,6.2969a57.6361,57.6361,0,0,1-33.9611,16.5363C126.4605,263.519,144.2936,188.1128,144.4906,187.2815Zm130.475,175.0711v33.3633a18.9781,18.9781,0,1,1-37.9562,0V362.3526a31.8005,31.8005,0,0,0,18.9781-12.0859A31.8005,31.8005,0,0,0,274.9656,362.3526Zm99.5563,60.4742c-17.2331,23.3854-42.2938,38.8524-70.2662,46.0237a199.81,199.81,0,0,1-92.508.94c-22.1156-5.08-43.14-15.0093-59.8761-30.5a119.6622,119.6622,0,0,1-28.03-39.5563,110.5868,110.5868,0,0,1-8.1319-26.2975c-.0683-.4125-.1338-.8255-.1929-1.24q.4842-6.2881,1.0637-12.5578A70.348,70.348,0,0,0,160.85,339.16l6.2953-6.2968A57.7266,57.7266,0,0,1,208.23,315.8456h25.4164l13.7258,17.5515.0015.0016a11.1051,11.1051,0,0,0,1.7854,1.807c-3.616,16.8447-26.9563,20.1781-35.21,5.1a18.9523,18.9523,0,0,1-1.9062-5.1612c-.4184-1.9684-.12-4.1228-.7788-6.0205a6.46,6.46,0,0,0-9.2643-3.43c-6.7752,3.9645-1.7916,16.4791,1.1539,21.5172a32.08,32.08,0,0,0,21.0559,15.141v33.3633a31.7781,31.7781,0,1,0,63.5562,0V362.3526a31.8668,31.8668,0,0,0,24.2454-22.7153c.9284-3.3662,2.1391-8.4362.26-11.6468a6.4577,6.4577,0,0,0-9.7443-1.5658c-3.0549,2.6879-1.9651,7.2326-3.1511,10.7886A18.9745,18.9745,0,0,1,262.83,335.26a11.0876,11.0876,0,0,0,1.8713-1.8629L278.43,315.8456h25.3385a57.7256,57.7256,0,0,1,41.0828,17.0156L351.15,339.16a70.3419,70.3419,0,0,0,44.2689,20.48q.5676,6.26,1.0623,12.5391C395.8922,376.0675,391.7469,399.455,374.5219,422.8268Z"/></g></svg>