<?xml version="1.0" ?><svg viewBox="0 0 512 512" xmlns="http://www.w3.org/2000/svg"><title/><g id="St_bernard"><path d="M459.4844,169.7667l-66.711-43.0343a26.4375,26.4375,0,0,0-27.0373-1.1547,90.4645,90.4645,0,0,0-68.1783-30.6953H214.4469a90.4649,90.4649,0,0,0-68.1786,30.6953,26.44,26.44,0,0,0-27.0371,1.1547l-66.775,43.0765c-30.07,19.9125-18.9515,69.4422-18.464,71.5407a6.4,6.4,0,0,0,9.4562,4.08l8.55-4.9812a79.8471,79.8471,0,0,0,.9958,21.6629,64.9665,64.9665,0,0,0,3.3367,11.6565c1.3452,3.4208,2.8157,8.3182,6.7613,9.4868a6.4332,6.4332,0,0,0,4.9062-.53l7.411-4.0813c4.6,12.2781,16.2875,37.2484,41.8093,61.8984a6.47,6.47,0,0,0,6.425,1.4844,6.4014,6.4014,0,0,0,4.325-4.9765l.7012-3.9766a111.5267,111.5267,0,0,0,37.4066,40.2816v8.8621A34.5466,34.5466,0,0,0,183.2656,412.27a34.9806,34.9806,0,0,0,34.6172.4218l38.1422-21.2,38.089,21.1844a34.8678,34.8678,0,0,0,51.8141-30.4719v-8.85a111.537,111.537,0,0,0,37.4068-40.28l.701,3.9754a6.4016,6.4016,0,0,0,4.325,4.9765,6.471,6.471,0,0,0,6.425-1.4844c25.5219-24.65,37.211-49.62,41.811-61.8984l7.4109,4.0813a6.4,6.4,0,0,0,8.7312-2.5891c7.5125-14.0484,8.1766-29.0656,7.2688-39.6875l8.5484,4.9812a6.4,6.4,0,0,0,9.4563-4.08C478.5,239.2511,489.62,189.72,459.4844,169.7667Zm-339.66,139.7586-.001.0055-2.2783,12.9219c-25.2016-28.0688-32.1922-54.42-32.2625-54.7a6.3978,6.3978,0,0,0-3.6547-4.3031,6.4779,6.4779,0,0,0-5.6391.2625L67.9,268.1667c-6.8375-18.6015-1.2172-38.0968-1.1563-38.3a6.4,6.4,0,0,0-9.35-7.3765l-12.32,7.1781C43.5609,216.3,43.2156,191.2792,59.4578,180.523l66.7109-43.0344a14.0643,14.0643,0,0,1,21.475,14.261v.0015Zm213.3035,72.6789a22.0662,22.0662,0,0,1-32.7922,19.2844L262.4031,380.391v-81.64a11.5987,11.5987,0,0,0,2.8078-2.5l16.5719-21.1875a11.6591,11.6591,0,0,0-9.1844-18.8406H239.4578a11.6591,11.6591,0,0,0-9.1844,18.8406l16.57,21.1891a11.5991,11.5991,0,0,0,2.7594,2.468v81.696L211.664,401.5042a22.0664,22.0664,0,0,1-32.7875-19.2875V332.2308a76.6159,76.6159,0,0,1,22.5891-54.5359l22.6391-22.6391a61.6328,61.6328,0,0,0,14.4328-22.875l17.4656-49.3391,17.4656,49.3391A61.6465,61.6465,0,0,0,287.9,255.0558l22.639,22.6391a76.6159,76.6159,0,0,1,22.5891,54.5359Zm12.8-24.5171V332.2308a89.33,89.33,0,0,0-26.3391-63.5859l-22.6375-22.6391a48.7739,48.7739,0,0,1-11.4171-18.0969l-23.4985-66.3812a6.452,6.452,0,0,0-12.0656,0l-23.4984,66.3812a48.7565,48.7565,0,0,1-11.4172,18.0953l-22.6391,22.6407a89.33,89.33,0,0,0-26.3391,63.5859v25.4461a100.7523,100.7523,0,0,1-33.3724-47.4828L160.25,153.973v.0016a26.4873,26.4873,0,0,0-4.3736-19.94,77.7614,77.7614,0,0,1,58.5705-26.3523h83.1109a77.7621,77.7621,0,0,1,58.5709,26.3523,26.4918,26.4918,0,0,0-4.374,19.9383L379.3033,310.21A99.8188,99.8188,0,0,1,345.9281,357.6871ZM466.93,229.6667,454.6125,222.49a6.4,6.4,0,0,0-9.35,7.375c.064.2156,5.7484,19.614-1.1516,38.3031l-8.0937-4.4562a6.41,6.41,0,0,0-9.2907,4.0281c-.0734.2906-7.0656,26.6437-32.2671,54.7125l-2.2762-12.9086-.0061-.0344L364.3609,151.7511a13.71,13.71,0,0,1,6.07-14.1594,13.9593,13.9593,0,0,1,15.4047-.1031l66.6469,42.9922C468.7734,191.2683,468.439,216.3,466.93,229.6667Z"/><path d="M183.63,238.1539a17.4392,17.4392,0,0,0,17.4187-17.4188V208.4707s-15.95,2.0937-34.2588,16.49A17.4082,17.4082,0,0,0,183.63,238.1539Z"/><path d="M311.0068,220.7351a17.387,17.387,0,0,0,34.2586,4.2258c-18.3088-14.3965-34.2586-16.49-34.2586-16.49Z"/></g></svg>