<?xml version="1.0" ?><svg viewBox="0 0 512 512" xmlns="http://www.w3.org/2000/svg"><title/><g id="Samoyed"><path d="M438.4141,243.617c-15.0625-72.8032-40.4844-135.85-43.475-143.1344-3.5063-20.3875-13.2313-51.0469-39.53-82.6656a19.7014,19.7014,0,0,0-24.9766-4.6782c-23.4711,13.502-42.3162,30.8461-56.1969,51.5071q-5.0444-.4723-10.139-.4758H247.9031q-5.0926,0-10.14.4761C223.8848,43.9849,205.04,26.6408,181.5656,13.1388a19.7,19.7,0,0,0-24.975,4.6782c-26.2984,31.6187-36.0234,62.2781-39.53,82.6656-2.9906,7.2844-28.4125,70.3312-43.475,143.1344a6.4,6.4,0,0,0-.1125,1.8c.3079,3.9062,8.0266,96.5687,48.13,176.2406a6.403,6.403,0,0,0,9.7938,2.0562l18.0094-14.8781c5.9437,12.8906,19.17,39.1563,37.5015,61.475a6.3957,6.3957,0,0,0,8.786,1.0563l15.7109-11.7844a147.9629,147.9629,0,0,0,41.0781,40.8125c.0738.0484.1578.0629.2328.1078a6.2619,6.2619,0,0,0,1.1071.5141c.1693.0617.33.1445.5023.191a6.402,6.402,0,0,0,1.601.23c.09.0016.0581.0016.1484,0a6.4066,6.4066,0,0,0,1.5992-.23c.1744-.0477.3375-.1309.5088-.1934a6.33,6.33,0,0,0,1.1-.5113c.0756-.0453.16-.06.2344-.1086a147.9629,147.9629,0,0,0,41.0781-40.8125l15.7109,11.7844a6.3953,6.3953,0,0,0,8.786-1.0563c18.3312-22.3187,31.5578-48.5844,37.5016-61.475l18.0093,14.8781a6.403,6.403,0,0,0,9.7938-2.0562c40.1031-79.6719,47.8219-172.3344,48.13-176.2406A6.4,6.4,0,0,0,438.4141,243.617ZM382.4922,408.67,364.2234,393.58a6.4008,6.4008,0,0,0-10.0015,2.5156c-.1422.3469-13.7547,33.3687-35.2156,61.2969L302.6547,445.13a6.4087,6.4087,0,0,0-9.4859,2.1031c-.1241.23-12.2217,22.36-37.1688,40.0312-24.9471-17.6711-37.0445-39.8008-37.1641-40.0218a6.3993,6.3993,0,0,0-9.4906-2.1125L192.9937,457.392c-21.4265-27.8875-35.0734-60.95-35.2171-61.3a6.4011,6.4011,0,0,0-10-2.5125L129.5078,408.67C95.5469,336.93,87.175,254.7045,86.3109,245.292c15.7078-75.3969,42.57-139.9094,42.8407-140.5563a6.3533,6.3533,0,0,0,.4109-1.4219c3.1406-18.8218,12.0875-47.5156,36.8687-77.3093a6.848,6.848,0,0,1,8.7516-1.7719C195.0621,35.6709,211.3592,50.0017,223.7756,66.9a110.523,110.523,0,0,0-15.1569,4.6136,6.4,6.4,0,0,0,4.6032,11.9438A96.0931,96.0931,0,0,1,247.9031,76.97h16.1938a96.0931,96.0931,0,0,1,34.6812,6.4875,6.4,6.4,0,0,0,4.6032-11.9438A110.538,110.538,0,0,0,288.2234,66.9c12.4172-16.8993,28.7145-31.2321,48.5922-42.6672a6.8488,6.8488,0,0,1,8.7532,1.7719c24.7812,29.7937,33.7281,58.4875,36.8687,77.3093a6.3586,6.3586,0,0,0,.4109,1.4219c.27.6438,27.12,65.1,42.8407,140.5563C424.8281,254.6982,416.4844,336.867,382.4922,408.67Z"/><path d="M313.62,230.0013a6.3943,6.3943,0,0,0-7.7219,4.7219l-4.6718,19.3844A17.4809,17.4809,0,0,1,279.62,266.8732l-21.93-6.0062c-.1025-.0286-.2049-.03-.3076-.0528a6.2364,6.2364,0,0,0-.7812-.134c-.203-.0195-.4018-.0187-.603-.0191s-.3994,0-.6019.0191a6.2969,6.2969,0,0,0-.79.136c-.0992.0222-.1982.0234-.2972.0508l-21.9281,6.0062a17.4816,17.4816,0,0,1-21.6079-12.7656l-4.6718-19.3844a6.4,6.4,0,0,0-12.4438,3l4.6719,19.3844a30.038,30.038,0,0,0,14.0328,18.975,30.3894,30.3894,0,0,0,8.03,3.28v8.1133a35.6078,35.6078,0,0,0,71.2156,0V279.363a30.3839,30.3839,0,0,0,8.03-3.28,30.038,30.038,0,0,0,14.0328-18.975l4.6719-19.3844A6.4,6.4,0,0,0,313.62,230.0013Zm-34.8125,57.475a22.8078,22.8078,0,1,1-45.6156,0V279.74c.8576-.1578,1.717-.29,2.5687-.5234L256,273.674l20.2406,5.543c.851.2335,1.71.3652,2.5672.5234Z"/><path d="M208.6742,189.667a14.4169,14.4169,0,0,0,14.4-14.4V165.1279a14.4,14.4,0,1,0-28.8,0V175.267A14.4168,14.4168,0,0,0,208.6742,189.667Z"/><path d="M303.3258,189.667a14.4169,14.4169,0,0,0,14.4-14.4V165.1279a14.4,14.4,0,1,0-28.8,0V175.267A14.4169,14.4169,0,0,0,303.3258,189.667Z"/><path d="M247.3344,251.4357a11.107,11.107,0,0,0,17.33.0031l14.4922-18.5312c5.5451-7.0906.3206-17.775-8.6641-17.775H241.5078c-8.9837,0-14.21,10.6821-8.6625,17.7781Z"/></g></svg>