<?xml version="1.0" ?><svg viewBox="0 0 512 512" xmlns="http://www.w3.org/2000/svg"><title/><g id="Dalmatian"><path d="M271.2154,320.0805H240.7826c-9.1706,0-14.508,10.9034-8.8453,18.1485l15.2156,19.4562a11.3428,11.3428,0,0,0,17.6906,0l15.2188-19.4594a11.2291,11.2291,0,0,0-8.8469-18.1453Z"/><path d="M204.6271,226.5626a15.1379,15.1379,0,0,0-15.12,15.12V252.329a15.12,15.12,0,0,0,30.24,0V241.6829A15.1379,15.1379,0,0,0,204.6271,226.5626Z"/><path d="M307.3715,226.5626a15.138,15.138,0,0,0-15.12,15.12V252.329a15.12,15.12,0,0,0,30.24,0V241.6829A15.138,15.138,0,0,0,307.3715,226.5626Z"/><path d="M423.69,183.3477,376.9639,147.07a27.0424,27.0424,0,0,0-26.8916-3.8391,97.6666,97.6666,0,0,0-81.2381-43.8953H243.1654a96.8033,96.8033,0,0,0-75.3609,35.82,95.5671,95.5671,0,0,0-5.8881,8.07,27.046,27.046,0,0,0-26.8822,3.8438l-46.725,36.2765a53.52,53.52,0,0,0-14.025,68.6657L115.3076,325.76a27.3928,27.3928,0,0,0,29.7438,13.5125,26.9944,26.9944,0,0,0,21.6359-24.4734l.156-1.784a297.7109,297.7109,0,0,1,2.0549,34.6762V370.629a42.036,42.036,0,0,0,48.0766,41.5968L256,406.554l39.025,5.6718A42.0311,42.0311,0,0,0,343.1,370.629V347.6915a297.737,297.737,0,0,1,2.056-34.68l.1565,1.7883a26.9943,26.9943,0,0,0,21.6359,24.4734A27.3948,27.3948,0,0,0,396.692,325.76l41.025-73.7484A53.52,53.52,0,0,0,423.69,183.3477ZM166.5029,170.0493,153.9373,313.6836a14.6766,14.6766,0,0,1-27.4453,5.8547L85.47,245.79a40.79,40.79,0,0,1,10.6891-52.3328l46.725-36.2781a14.6752,14.6752,0,0,1,23.6187,12.87ZM336.7342,284.84A310.8505,310.8505,0,0,0,330.3,347.6915V370.629a29.2307,29.2307,0,0,1-33.4344,28.9281L256.92,393.754a6.4858,6.4858,0,0,0-1.8406,0l-39.9453,5.8031a29.2311,29.2311,0,0,1-33.436-28.9281V347.6915a310.85,310.85,0,0,0-6.4343-62.8516l-4.1856-20.2328,8.1746-93.4422a27.0711,27.0711,0,0,0-6.8271-20.6133,83.0985,83.0985,0,0,1,5.3037-7.3133,84.0508,84.0508,0,0,1,65.4359-31.1031h25.6688a84.0533,84.0533,0,0,1,65.4343,31.1016,82.9458,82.9458,0,0,1,5.2786,7.3437,27.0726,27.0726,0,0,0-6.802,20.5844l8.1754,93.4387Zm89.7968-39.05-41.0234,73.7484a14.6766,14.6766,0,0,1-27.4453-5.8547L345.4951,170.0493a14.3088,14.3088,0,0,1,7.5984-14.1641,14.5651,14.5651,0,0,1,16.02,1.2938L415.84,193.4571A40.7919,40.7919,0,0,1,426.531,245.79Z"/><path d="M132.6861,192.336a14.21,14.21,0,0,0-14.21,14.21v16.52a14.21,14.21,0,1,0,28.42,0v-16.52A14.21,14.21,0,0,0,132.6861,192.336Z"/><path d="M380.1851,203.6571V193.3133c0-11.4728-17.7957-11.4741-17.7957,0v10.3438C362.3894,215.13,380.1851,215.1308,380.1851,203.6571Z"/><path d="M278.5236,124.7751a9.9535,9.9535,0,0,0-9.9535,9.9539v7.8125c0,12.8275,19.907,12.8354,19.907,0V134.729A9.9535,9.9535,0,0,0,278.5236,124.7751Z"/><path d="M300.1035,191.1754a7.2679,7.2679,0,0,0,7.268-7.2679v-5.7047c0-9.3586-14.5358-9.3865-14.5358,0v5.7047A7.2678,7.2678,0,0,0,300.1035,191.1754Z"/><path d="M234.5338,167.5829v-10.575a13.4724,13.4724,0,1,0-26.9448,0v10.575a13.4724,13.4724,0,0,0,26.9448,0Z"/><path d="M376.8252,267.8551A6.4452,6.4452,0,0,0,370.38,274.3v7.493c0,8.2986,12.8906,8.315,12.8906,0V274.3A6.4453,6.4453,0,0,0,376.8252,267.8551Z"/><path d="M405.7273,211.4458A11.244,11.244,0,0,0,394.4832,222.69v13.0719a11.2441,11.2441,0,0,0,22.4881,0V222.69A11.2438,11.2438,0,0,0,405.7273,211.4458Z"/><path d="M118.4762,255.3387a7.6581,7.6581,0,0,0-7.6584,7.6582V271.9c0,9.8713,15.3168,9.8922,15.3168,0v-8.9035A7.6582,7.6582,0,0,0,118.4762,255.3387Z"/></g></svg>