<?xml version="1.0" ?><svg viewBox="0 0 512 512" xmlns="http://www.w3.org/2000/svg"><title/><g id="Shar_pei"><path d="M183.3777,243.2585a17.1131,17.1131,0,0,0,17.0926-17.093V214.1308s-15.6512,2.0543-33.6174,16.1816A17.0823,17.0823,0,0,0,183.3777,243.2585Z"/><path d="M311.5311,226.1655a17.0608,17.0608,0,0,0,33.6173,4.1469c-17.9662-14.1273-33.6173-16.1816-33.6173-16.1816Z"/><path d="M242.7758,128.01a6.4,6.4,0,0,0-6.4,6.4v24.1343a61.9883,61.9883,0,0,1-12.125,36.9625,6.399,6.399,0,0,0,1.3656,8.9469,6.468,6.468,0,0,0,8.9469-1.3656,74.7041,74.7041,0,0,0,14.6125-44.5438V134.41A6.4,6.4,0,0,0,242.7758,128.01Z"/><path d="M275.6258,158.5444V134.41c0-8.24-12.8-8.2565-12.8,0v24.1343a75.1711,75.1711,0,0,0,5.79,28.9921c2.3175,5.5321,9.2494,23.1879,17.7695,16.9173a6.4,6.4,0,0,0,1.364-8.9469A61.9838,61.9838,0,0,1,275.6258,158.5444Z"/><path d="M440.1711,142.5069a53.2126,53.2126,0,0,0-46.2109-52.15l-24.5563-3.375h-.0016a31.1627,31.1627,0,0,0-30.5345,13.7774,93.3167,93.3167,0,0,0-26.7076-3.893H199.84a93.32,93.32,0,0,0-26.707,3.8934,31.1615,31.1615,0,0,0-30.5351-13.7778h-.0016L118.04,90.3569a53.21,53.21,0,0,0-46.2093,52.15l-.611,38.225a31.0742,31.0742,0,0,0,21.8766,30.5969,32.19,32.19,0,0,0,13.2484,1.4281V335.7444a54.8833,54.8833,0,0,0,24.87,46.0344l10.3557,6.7863A52.7025,52.7025,0,0,0,160.843,415.11a53.2978,53.2978,0,0,0,47.5812,7.6875l47.5766-15.24,47.5781,15.24a53.2953,53.2953,0,0,0,47.58-7.6875A52.7083,52.7083,0,0,0,370.43,388.5663l10.358-6.7875a54.8854,54.8854,0,0,0,24.8687-46.0344V212.7569a32.1836,32.1836,0,0,0,13.2469-1.4281,31.0742,31.0742,0,0,0,21.8766-30.5969Zm-343.13,56.6469c-6.4031-2.075-13.1875-7.95-13.025-18.2156l.6109-38.225a40.4834,40.4834,0,0,1,35.1563-39.675l24.5562-3.375h-.0015a18.8322,18.8322,0,0,1,17.9922,29.4562l-44.0578,62.9188C112.3836,200.4538,103.4461,201.2319,97.0414,199.1538ZM249.6008,396.1694,204.52,410.61a40.3953,40.3953,0,0,1-52.714-38.4688V353.1726a104.3655,104.3655,0,0,1,76.5806-100.4547l17.4241,22.28a12.8605,12.8605,0,0,0,3.7906,3.2031Zm110.5953-24.0281A40.3947,40.3947,0,0,1,307.4836,410.61l-45.0828-14.4407v-117.97a12.8594,12.8594,0,0,0,3.7875-3.2015l17.4244-22.28a104.3656,104.3656,0,0,1,76.5834,100.4555Zm32.6609-36.3969a42.12,42.12,0,0,1-19.0859,35.3282l-.775.5078V353.1726a117.1879,117.1879,0,0,0-83.4938-112.0813,12.8971,12.8971,0,0,0-12.914-13.3219H235.4117a12.8952,12.8952,0,0,0-12.9131,13.3223,117.1874,117.1874,0,0,0-83.4931,112.0809V371.58l-.7735-.507a42.1179,42.1179,0,0,1-19.0875-35.3282V208.4085a32.14,32.14,0,0,0,9.6125-9.0266l44.0578-62.9187a31.18,31.18,0,0,0,5.1864-23.81,80.6469,80.6469,0,0,1,21.8386-2.9871H312.16a80.6607,80.6607,0,0,1,21.8392,2.9867,31.1826,31.1826,0,0,0,5.1873,23.81l44.0563,62.9187a32.1362,32.1362,0,0,0,9.614,9.0274Zm22.1016-136.5906c-6.4063,2.0719-15.3422,1.2938-21.2313-7.1156l-44.0562-62.9188a18.621,18.621,0,0,1-.6469-20.6125,18.866,18.866,0,0,1,18.636-8.8437l24.5562,3.375a40.4861,40.4861,0,0,1,35.1578,39.675l.6094,38.225C428.1461,191.2038,421.3617,197.0788,414.9586,199.1538Z"/><path d="M194.807,192.2819a6.408,6.408,0,0,0-8.5984-2.825L161.007,202.1976a39.0132,39.0132,0,0,0-21.5218,34.9875v7.9531c0,8.24,12.8,8.2564,12.8,0v-7.9531a26.274,26.274,0,0,1,14.4953-23.5625l25.2031-12.7407A6.401,6.401,0,0,0,194.807,192.2819Z"/><path d="M350.9961,202.1976l-25.2047-12.7407a6.4008,6.4008,0,1,0-5.775,11.425l25.2047,12.7407a26.2727,26.2727,0,0,1,14.4937,23.5625v7.9531c0,8.24,12.8,8.2564,12.8,0v-7.9531A39.0133,39.0133,0,0,0,350.9961,202.1976Z"/></g></svg>