<?xml version="1.0" ?><svg viewBox="0 0 512 512" xmlns="http://www.w3.org/2000/svg"><title/><g id="Rottweiler"><path d="M204.9611,210.7561a13.6961,13.6961,0,0,0,13.68-13.68v-9.632a13.68,13.68,0,1,0-27.36,0v9.632A13.6961,13.6961,0,0,0,204.9611,210.7561Z"/><path d="M293.3588,187.444v9.632a13.68,13.68,0,1,0,27.36,0v-9.632a13.68,13.68,0,1,0-27.36,0Z"/><path d="M425.9734,104.2934A42.99,42.99,0,0,0,388.6406,62.159l-33.8828-4.6562A27.5279,27.5279,0,0,0,327.335,70.3411c-.4289-.0092-.8459-.0633-1.2772-.0633H185.9422c-.4318,0-.85.05-1.2793.06a27.5347,27.5347,0,0,0-27.4207-12.8351L123.3594,62.159a42.99,42.99,0,0,0-37.3328,42.1344l-.7782,48.8109a27.4043,27.4043,0,0,0,19.2891,26.9813,27.6971,27.6971,0,0,0,23.9734-3.1791v203.12c0,17.4422,10.0971,32.5843,23.1209,43.4173,16.9312,14.0832,38.4386,22.1915,59.7693,26.7213a218.3263,218.3263,0,0,0,79.3662,1.8272c22.3352-3.5767,44.884-10.7633,63.52-23.897,15.831-11.1567,29.2016-27.8615,29.2016-48.0688V176.9073a27.6968,27.6968,0,0,0,23.9734,3.1783,27.4037,27.4037,0,0,0,19.2891-26.98ZM125.5063,162.2075a15.096,15.096,0,0,1-27.461-8.8985l.7781-48.8125a30.2608,30.2608,0,0,1,26.28-29.6562l33.8828-4.6563A14.9936,14.9936,0,0,1,173.925,77.27a14.7209,14.7209,0,0,1-.5172,16.5281ZM370.6891,380.0262c0,14.8424-10.2849,27.1372-21.5845,35.6127-15.6689,11.7529-34.9158,18.5262-53.952,22.3919a198.8141,198.8141,0,0,1-69.5817,1.5569c-20.0456-3.0926-40.2881-9.224-57.4351-20.304-13.4423-8.6861-26.8249-22.1525-26.8249-39.2575V161.9514l42.5813-60.8127a27.6107,27.6107,0,0,0,4.98-18.0609H323.1281a27.6107,27.6107,0,0,0,4.98,18.0609l42.5813,60.8141Zm32.8265-212.1156a14.687,14.687,0,0,1-17.0219-5.7016L338.5922,93.7981A14.7209,14.7209,0,0,1,338.075,77.27a14.9948,14.9948,0,0,1,14.9391-7.086L386.8969,74.84a30.2608,30.2608,0,0,1,26.28,29.6562l.7781,48.8141A14.6818,14.6818,0,0,1,403.5156,167.9106Z"/><path d="M221.9641,161.0606A24.0867,24.0867,0,0,0,237.48,118.544c-16.8942-14.2513-43.1762,1.0251-39.2218,22.7468A24.35,24.35,0,0,0,221.9641,161.0606Zm0-35.3906a11.2953,11.2953,0,1,1-11.2783,11.736A11.4186,11.4186,0,0,1,221.9641,125.67Z"/><path d="M290.0359,161.0606a24.0867,24.0867,0,0,0,15.5155-42.5166c-16.8942-14.2513-43.1762,1.0251-39.2219,22.7468A24.3506,24.3506,0,0,0,290.0359,161.0606Zm0-35.3906a11.2953,11.2953,0,1,1-11.2783,11.736A11.4186,11.4186,0,0,1,290.0359,125.67Z"/><path d="M280.2482,227.3239a10.8836,10.8836,0,0,0-.8013-2.3305,10.6967,10.6967,0,0,0-9.68-6.05H242.2328a10.6967,10.6967,0,0,0-9.68,6.05,10.8836,10.8836,0,0,0-.8013,2.3305l-35.8143,8.5445a45.0028,45.0028,0,0,0-34.675,43.92v9.2734c0,39.3338,25.3165,75.4738,62.2468,88.9979,37.2461,13.64,80.054,1.9257,105.367-28.5293a95.0238,95.0238,0,0,0,21.8612-60.4686v-9.2734a45.0031,45.0031,0,0,0-34.6734-43.92Zm57.6893,52.4648v9.2734a82.7813,82.7813,0,0,1-53.6429,76.9022c-32.2375,11.8984-69.3539,1.8034-91.2974-24.57a82.19,82.19,0,0,1-18.9347-52.3327v-9.2734a32.2484,32.2484,0,0,1,24.8438-31.47l37.2546-8.8875,10.1137,12.9316-24.76,24.76-.0082.0082-6.7818,6.7818a8.9657,8.9657,0,0,1-10.05,1.9985,9.1956,9.1956,0,0,1-4.7871-4.4262c-1.0781-2.2345-.5-4.7719-1.5935-6.9547a6.4547,6.4547,0,0,0-11.2377-.37c-2.25,3.8447-.255,10.0064,1.658,13.6239a22.1532,22.1532,0,0,0,31.2332,8.2443,36.33,36.33,0,0,0,72.1041,0,22.1526,22.1526,0,0,0,31.0206-7.8613c2.04-3.6734,4.1893-10.0449,1.8707-14.0071a6.47,6.47,0,0,0-11.0523,0c-1.2506,2.1373-.6588,4.6983-1.6185,6.9471a9.1281,9.1281,0,0,1-4.9475,4.8033,8.9779,8.9779,0,0,1-10.05-1.9985l-6.7818-6.7818-.0082-.0082-24.76-24.76,10.1139-12.9316,37.2545,8.8875A32.2484,32.2484,0,0,1,337.9375,279.7887ZM256,260.7371l23.5641,23.5641v7.2047a23.5641,23.5641,0,0,1-47.1282,0v-7.2047Z"/></g></svg>