<?xml version="1.0" ?><svg viewBox="0 0 512 512" xmlns="http://www.w3.org/2000/svg"><title/><g id="Chihuahua_short_hair"><path d="M295.2609,321.6287c-5.04,0-5.9908,4.141-6.5116,8.1224a13.1983,13.1983,0,0,1-25.7593,1.9714,10.6055,10.6055,0,0,0,1.3241-1.3484L277.4109,313.63a10.5571,10.5571,0,0,0-8.3156-17.0594H242.9047a10.5555,10.5555,0,0,0-8.3141,17.0594l13.0922,16.7422a11.0636,11.0636,0,0,0,1.3248,1.3578,13.1974,13.1974,0,0,1-25.4315-.3231c-.9934-3.7589-.17-7.8266-4.7409-9.4126a6.4594,6.4594,0,0,0-8.4377,5.1658c-.57,3.8142.7459,8.3336,2.3322,11.7625A25.99,25.99,0,0,0,256,345.0694a26.0188,26.0188,0,0,0,44.4888-9.3086C302.0494,330.7534,302.932,321.6287,295.2609,321.6287Z"/><path d="M399.5266,87.7631A22.5241,22.5241,0,0,0,364.07,74.8569c-46.0394,34.6379-72.5543,79.58-83.3543,100.932-2.2771-.1695-4.56-.282-6.8488-.282H238.1328c-2.289,0-4.5717.1125-6.8488.282-10.8-21.3516-37.3149-66.2941-83.3543-100.932a22.5241,22.5241,0,0,0-35.4563,12.9062c-10.0343,43.3063-7.1921,83.7344-3.0422,110.0235a79.3021,79.3021,0,0,0,32.0376,52.2968l5.2218,3.7743A93.5449,93.5449,0,0,0,145.6,268.0412v15.3594a91.5489,91.5489,0,0,0,19.8188,57.2172,99.3374,99.3374,0,0,1,16.844,31.3912,89.0547,89.0547,0,0,1,3.6221,17.1131c.5146,4.6871.1271,9.4809.9006,14.1274,2.7527,16.537,18.7964,27.0467,33.4,32.3507,20.1609,7.3225,43.4095,7.8888,64.0771,2.3688,15.75-4.2066,33.72-13.283,39.6217-29.644,1.5356-4.2573,1.6027-8.4041,1.7679-12.8659a88.14,88.14,0,0,1,2.7589-18.8395,98.3568,98.3568,0,0,1,18.17-36.0018A91.5489,91.5489,0,0,0,366.4,283.4006V268.0412a93.463,93.463,0,0,0-1.091-14.1835l5.2238-3.7758a79.299,79.299,0,0,0,32.036-52.2953C406.7188,171.4975,409.5609,131.0694,399.5266,87.7631ZM389.925,195.79a66.5929,66.5929,0,0,1-26.8906,43.9187l-8.4656,6.1188c-.1182.0851-.2094.1922-.32.284a6.4327,6.4327,0,0,0-.56.4976c-.1436.15-.2614.3153-.3879.477s-.2594.3187-.37.4929a6.2708,6.2708,0,0,0-.3016.5625c-.0906.1793-.1863.354-.26.5415-.0746.1906-.124.3867-.18.5828a6.2627,6.2627,0,0,0-.1588.6082c-.0377.2066-.0475.416-.0645.6254-.0162.2-.0416.3976-.0387.6015a6.3865,6.3865,0,0,0,.0739.7535c.0187.1407.0127.2789.041.42A80.24,80.24,0,0,1,353.6,268.0412v15.3594a78.8628,78.8628,0,0,1-17.0719,49.2922c-13.01,16.5062-21.5872,36.4338-23.3742,57.4566-.6394,7.5226.1167,13.8914-4.9072,20.0745-4.8878,6.0156-12.097,9.9558-19.2164,12.7125-18.5241,7.1728-40.2131,7.6813-59.2542,2.2706-13.0972-3.7217-30.34-11.8981-30.5755-27.63-.3541-23.6959-9.1116-46.34-23.7287-64.8847A78.8628,78.8628,0,0,1,158.4,283.4006V268.0412a80.4246,80.4246,0,0,1,1.5562-15.7687c.0247-.1223.0184-.2422.0356-.3641a6.37,6.37,0,0,0,.08-.8187c.0023-.1867-.0217-.3672-.0354-.5512a6.4277,6.4277,0,0,0-.07-.6762c-.0354-.1929-.0947-.3765-.1473-.564a6.4125,6.4125,0,0,0-.1929-.6258c-.069-.1742-.1586-.3371-.2424-.5047a6.2762,6.2762,0,0,0-.32-.5965c-.1045-.1633-.2293-.31-.3481-.4633a4.1992,4.1992,0,0,0-.9428-.9769c-.1175-.0984-.2156-.2125-.342-.3039l-8.464-6.1172a66.596,66.596,0,0,1-26.8922-43.92c-3.9734-25.1672-6.7016-63.836,2.8672-105.1391a9.725,9.725,0,0,1,15.2906-5.5656c41.4332,31.1727,66.3078,71.1234,77.6725,92.7031a92.1456,92.1456,0,0,0-23.8834,8.8922,6.3987,6.3987,0,0,0-2.5688,8.6781,6.4635,6.4635,0,0,0,8.6782,2.5688,79.8424,79.8424,0,0,1,38.0015-9.62h35.7344a79.8421,79.8421,0,0,1,38.0015,9.62,6.4643,6.4643,0,0,0,8.6782-2.5688,6.3987,6.3987,0,0,0-2.5688-8.6781,92.1456,92.1456,0,0,0-23.8834-8.8922,286.2814,286.2814,0,0,1,58.7223-76.8813q6.346-5.8512,13.0809-11.2608c4.3684-3.5032,8.96-8.1194,15.0177-5.911a9.5439,9.5439,0,0,1,6.1422,6.9156C396.6266,131.9537,393.8984,170.6225,389.925,195.79Z"/><path d="M192.675,258.9608a14.4169,14.4169,0,0,0-14.4,14.4V283.5a14.4,14.4,0,1,0,28.8,0v-10.139A14.4169,14.4169,0,0,0,192.675,258.9608Z"/><path d="M319.325,258.9608a14.4169,14.4169,0,0,0-14.4,14.4V283.5a14.4,14.4,0,0,0,28.8,0v-10.139A14.4169,14.4169,0,0,0,319.325,258.9608Z"/></g></svg>